<svg width="30" height="30" viewBox="0 0 30 30" fill="none" xmlns="http://www.w3.org/2000/svg">
<rect x="0.301502" y="0.301502" width="29.397" height="29.397" rx="14.6985" fill="#161616"/>
<rect x="0.301502" y="0.301502" width="29.397" height="29.397" rx="14.6985" stroke="#202020" stroke-width="0.603004"/>
<path d="M10.7506 21.0006H8.16406V8.9961C8.28886 8.98756 8.39314 8.97388 8.49742 8.97388C9.59154 8.97388 10.6874 8.9773 11.7815 8.96875C11.9986 8.96875 12.12 9.01662 12.2003 9.24399C12.9593 11.3963 13.7321 13.5435 14.4945 15.6958C14.5441 15.8377 14.5578 15.9967 14.5595 16.1489C14.5663 16.7284 14.5629 17.3062 14.5629 17.9046H15.4245C15.4245 17.4156 15.457 16.9301 15.416 16.4514C15.3698 15.9129 15.5903 15.4514 15.7596 14.9744C16.4366 13.07 17.1187 11.1672 17.8093 9.26792C17.8521 9.15167 17.994 8.98926 18.0914 8.98756C19.3274 8.96875 20.5634 8.97559 21.8353 8.97559V21.0159C21.2575 21.0159 20.6797 21.0159 20.1018 21.0159C19.5263 21.0159 19.2379 20.7299 19.2368 20.1577C19.2368 18.5986 19.2163 17.0395 19.2505 15.4821C19.2607 15.0171 19.3941 14.5487 19.5206 14.0957C19.7257 13.364 19.9463 12.634 20.2095 11.9211C20.3651 11.5006 20.0933 11.4886 19.8403 11.3809C19.5548 11.2595 19.4539 11.3587 19.3582 11.6288C18.288 14.6427 17.2024 17.6515 16.134 20.6655C16.04 20.9305 15.934 21.0484 15.6348 21.0262C15.2091 20.9937 14.7783 21.004 14.3509 21.0228C14.0979 21.0347 13.9782 20.9578 13.8893 20.7065C12.8294 17.7148 11.7541 14.7282 10.6839 11.7399C10.5232 11.2903 10.1779 11.1963 9.8172 11.5262C9.76078 11.5775 9.76591 11.7416 9.79497 11.8391C10.089 12.8187 10.3967 13.7931 10.6942 14.771C10.7386 14.9163 10.7745 15.0718 10.7763 15.224C10.7814 17.0447 10.7814 18.8653 10.7797 20.686C10.7797 20.78 10.7643 20.8723 10.7523 21.004L10.7506 21.0006Z" fill="#D6FF00"/>
</svg>
