<svg width="30" height="30" viewBox="0 0 30 30" fill="none" xmlns="http://www.w3.org/2000/svg">
<rect x="0.301502" y="0.301502" width="29.397" height="29.397" rx="14.6985" fill="#161616"/>
<rect x="0.301502" y="0.301502" width="29.397" height="29.397" rx="14.6985" stroke="#202020" stroke-width="0.603004"/>
<g clip-path="url(#clip0_4300_2061)">
<path d="M15 25C20.5228 25 25 20.5228 25 15C25 9.47715 20.5228 5 15 5C9.47715 5 5 9.47715 5 15C5 20.5228 9.47715 25 15 25Z" fill="#FF0420"/>
<path d="M11.7918 17.9196C11.1389 17.9196 10.6044 17.7663 10.1881 17.4596C9.77625 17.1485 9.57031 16.7015 9.57031 16.1275C9.57031 16.0048 9.58346 15.8602 9.60975 15.685C9.67985 15.2906 9.78063 14.8174 9.91208 14.2609C10.2845 12.7536 11.2485 12 12.7996 12C13.2202 12 13.6014 12.0701 13.9344 12.2147C14.2675 12.3505 14.5304 12.5609 14.7231 12.8413C14.9159 13.1173 15.0123 13.4459 15.0123 13.8272C15.0123 13.9411 14.9992 14.0857 14.9729 14.2609C14.8896 14.7473 14.7933 15.2249 14.6749 15.685C14.4822 16.4342 14.1535 16.9995 13.6803 17.3719C13.2115 17.74 12.5805 17.9196 11.7918 17.9196ZM11.9101 16.7366C12.2168 16.7366 12.4754 16.6446 12.6901 16.4649C12.9091 16.2853 13.0669 16.0092 13.1589 15.6324C13.286 15.1154 13.3824 14.6684 13.4481 14.2828C13.47 14.1689 13.4831 14.0506 13.4831 13.9279C13.4831 13.4284 13.2246 13.1787 12.7032 13.1787C12.3965 13.1787 12.1336 13.2707 11.9145 13.4503C11.6998 13.63 11.5464 13.906 11.4544 14.2828C11.3536 14.6509 11.2573 15.0978 11.1565 15.6324C11.1346 15.7419 11.1214 15.8559 11.1214 15.9785C11.117 16.4868 11.3843 16.7366 11.9101 16.7366Z" fill="white"/>
<path d="M15.4042 17.8434C15.3428 17.8434 15.299 17.8259 15.264 17.7865C15.2377 17.7427 15.2289 17.6945 15.2377 17.6375L16.3725 12.2919C16.3813 12.2305 16.4119 12.1823 16.4645 12.1429C16.5127 12.1035 16.5653 12.0859 16.6223 12.0859H18.8087C19.4178 12.0859 19.9041 12.213 20.2722 12.4628C20.6446 12.7169 20.833 13.0806 20.833 13.5582C20.833 13.694 20.8155 13.8386 20.7848 13.9876C20.649 14.6185 20.373 15.083 19.9523 15.3853C19.5405 15.6877 18.9752 15.8366 18.2566 15.8366H17.1481L16.7712 17.6375C16.7581 17.6988 16.7318 17.747 16.6792 17.7865C16.631 17.8259 16.5784 17.8434 16.5215 17.8434H15.4042ZM18.3136 14.7018C18.5458 14.7018 18.743 14.6404 18.9139 14.5134C19.0891 14.3863 19.2031 14.2067 19.26 13.9701C19.2776 13.878 19.2863 13.7948 19.2863 13.7247C19.2863 13.5669 19.2381 13.4443 19.1461 13.361C19.0541 13.2734 18.892 13.2296 18.6685 13.2296H17.6826L17.3715 14.7018H18.3136Z" fill="white"/>
</g>
<defs>
<clipPath id="clip0_4300_2061">
<rect width="20" height="20" fill="white" transform="translate(5 5)"/>
</clipPath>
</defs>
</svg>
