<svg width="30" height="30" viewBox="0 0 30 30" fill="none" xmlns="http://www.w3.org/2000/svg">
<rect x="0.301502" y="0.301502" width="29.397" height="29.397" rx="14.6985" fill="#161616"/>
<rect x="0.301502" y="0.301502" width="29.397" height="29.397" rx="14.6985" stroke="#202020" stroke-width="0.603004"/>
<path d="M10.5665 12.7461L8.28038 11.582C8.101 11.9331 7.95025 12.3014 7.82812 12.6774L10.2688 13.4674C10.3489 13.2193 10.4481 12.977 10.5665 12.7461Z" fill="#F2F2F2"/>
<path d="M12.507 10.6957L13.7741 12.8768C13.9592 12.7699 14.1576 12.6879 14.3618 12.6325L13.7073 10.1976C13.8733 10.1537 14.0431 10.1155 14.2149 10.0888L13.8122 7.55469C13.423 7.61575 13.0356 7.70926 12.6616 7.83138L13.4439 10.232C13.194 10.314 12.9516 10.4151 12.7188 10.5335L11.5681 8.28745C11.2189 8.46683 10.8793 8.67483 10.5625 8.90763L12.0757 10.98C12.2131 10.8769 12.3582 10.7834 12.507 10.6957Z" fill="#F2F2F2"/>
<path d="M19.2983 12.503L17.1172 13.7701C17.224 13.9552 17.308 14.1536 17.3634 14.3578L19.7983 13.7014C19.8441 13.8674 19.8803 14.0372 19.907 14.2071L22.4412 13.8044C22.3801 13.4151 22.2866 13.0278 22.1626 12.6538L19.7639 13.438C19.6819 13.1881 19.5807 12.9457 19.4624 12.7129L21.7084 11.5603C21.529 11.2111 21.321 10.8715 21.0882 10.5547L19.0178 12.0679C19.117 12.2091 19.2105 12.3542 19.2983 12.503Z" fill="#F2F2F2"/>
<path d="M18.4069 8.27647C18.0558 8.0971 17.6875 7.94635 17.3115 7.82422L16.5234 10.2649C16.7696 10.345 17.0119 10.4442 17.2448 10.5625L18.4069 8.27647Z" fill="#F2F2F2"/>
<path d="M17.4992 10.6539L16.2188 12.877C16.4038 12.9839 16.5756 13.1156 16.7263 13.2663L20.3177 9.66164C20.0391 9.38304 19.7356 9.12543 19.4189 8.89453L17.9381 10.9383C17.7969 10.8352 17.6518 10.7398 17.4992 10.6539Z" fill="#F2F2F2"/>
<path d="M10.6559 12.4923L12.8771 13.7746C12.984 13.5895 13.1157 13.4178 13.2664 13.2651L9.66555 9.67188C9.38695 9.95048 9.12933 10.2539 8.89844 10.5707L10.9403 12.0534C10.8391 12.1946 10.7437 12.3415 10.6559 12.4923Z" fill="#F2F2F2"/>
<path d="M15.7687 10.0447L16.156 7.55062C15.7725 7.49147 15.3813 7.46094 14.9901 7.46094H14.9844V12.5483H14.9901C15.2038 12.5483 15.4175 12.575 15.6217 12.6304L16.2801 10.1516C16.1121 10.1058 15.9423 10.0714 15.7687 10.0447Z" fill="#F2F2F2"/>
<path d="M12.6304 14.3673L10.1516 13.707C10.1077 13.875 10.0714 14.0467 10.0447 14.2184L7.55062 13.8292C7.49147 14.2127 7.46094 14.6077 7.46094 14.9989H12.5483C12.5483 14.7833 12.5769 14.5715 12.6304 14.3673Z" fill="#F2F2F2"/>
<path d="M19.4297 17.2487L21.7158 18.4127C21.8951 18.0616 22.0459 17.6933 22.168 17.3174L19.7274 16.5273C19.6472 16.7754 19.548 17.0178 19.4297 17.2487Z" fill="#F2F2F2"/>
<path d="M17.4935 19.2983L16.2284 17.1172C16.0433 17.224 15.8448 17.3061 15.6406 17.3614L16.2952 19.7964C16.1291 19.8402 15.9593 19.8784 15.7876 19.9051L16.1902 22.4393C16.5795 22.3782 16.9669 22.2847 17.3409 22.1626L16.5585 19.762C16.8085 19.68 17.0508 19.5788 17.2836 19.4605L18.4343 21.7065C18.7835 21.5271 19.1232 21.3191 19.4399 21.0863L17.9286 19.014C17.7893 19.1189 17.6443 19.2124 17.4935 19.2983Z" fill="#F2F2F2"/>
<path d="M10.6976 17.4954L12.8787 16.2284C12.7718 16.0433 12.6879 15.8448 12.6325 15.6406L10.1976 16.2971C10.1518 16.131 10.1155 15.9612 10.0888 15.7914L7.55469 16.194C7.61575 16.5833 7.70926 16.9707 7.83329 17.3447L10.232 16.5604C10.314 16.8085 10.4151 17.0527 10.5335 17.2855L8.28745 18.4381C8.46683 18.7873 8.67483 19.127 8.90763 19.4438L10.9781 17.9305C10.8788 17.7893 10.7853 17.6443 10.6976 17.4954Z" fill="#F2F2F2"/>
<path d="M11.5938 21.7197C11.9449 21.899 12.3132 22.0498 12.6891 22.1719L13.4772 19.7313C13.231 19.6511 12.9887 19.5519 12.7559 19.4336L11.5938 21.7197Z" fill="#F2F2F2"/>
<path d="M12.4982 19.3468L13.7786 17.1237C13.5935 17.0168 13.4217 16.8851 13.271 16.7344L9.67969 20.339C9.95829 20.6176 10.2617 20.8753 10.5785 21.1062L12.0593 19.0624C12.2005 19.1636 12.3474 19.259 12.4982 19.3468Z" fill="#F2F2F2"/>
<path d="M19.3449 17.5011L17.1237 16.2188C17.0168 16.4038 16.8851 16.5756 16.7344 16.7283L20.3371 20.3215C20.6157 20.0429 20.8734 19.7395 21.1042 19.4227L19.0624 17.94C19.1636 17.7969 19.259 17.6518 19.3449 17.5011Z" fill="#F2F2F2"/>
<path d="M14.3693 17.3672L13.7109 19.846C13.8789 19.8899 14.0506 19.9261 14.2223 19.9529L13.835 22.4469C14.2185 22.5061 14.6097 22.5366 15.0009 22.5366H15.0066V17.4492H15.0009C14.7872 17.4492 14.5735 17.4206 14.3693 17.3672Z" fill="#F2F2F2"/>
<path d="M17.4492 15C17.4492 15.2156 17.4225 15.4274 17.3672 15.6316L19.846 16.2919C19.8899 16.124 19.9261 15.9522 19.9529 15.7805L22.4469 16.1698C22.5061 15.7862 22.5366 15.3912 22.5366 15H17.4492Z" fill="#F2F2F2"/>
</svg>
