<svg width="30" height="30" viewBox="0 0 30 30" fill="none" xmlns="http://www.w3.org/2000/svg">
<rect x="0.301502" y="0.301502" width="29.397" height="29.397" rx="14.6985" fill="#161616"/>
<rect x="0.301502" y="0.301502" width="29.397" height="29.397" rx="14.6985" stroke="#202020" stroke-width="0.603004"/>
<g clip-path="url(#clip0_4300_2079)">
<path d="M8.44531 11.867V18.139C8.44531 18.5422 8.65651 18.907 9.00851 19.1118L14.4421 22.2478C14.7877 22.4462 15.2165 22.4462 15.5621 22.2478L20.9957 19.1118C21.3413 18.9134 21.5589 18.5422 21.5589 18.139V11.867C21.5589 11.4638 21.3477 11.099 20.9957 10.8942L15.5621 7.75818C15.2165 7.55977 14.7877 7.55977 14.4421 7.75818L9.00851 10.8942C8.66291 11.0926 8.45171 11.4638 8.45171 11.867H8.44531Z" fill="#213147"/>
<path d="M16.1716 16.2036L15.3972 18.3284C15.378 18.386 15.378 18.45 15.3972 18.514L16.7284 22.1684L18.2708 21.2788L16.4212 16.2036C16.3764 16.0884 16.2164 16.0884 16.1716 16.2036Z" fill="#12AAFF"/>
<path d="M17.7259 12.6255C17.6811 12.5103 17.5211 12.5103 17.4763 12.6255L16.7019 14.7503C16.6827 14.8079 16.6827 14.8719 16.7019 14.9359L18.8843 20.9199L20.4267 20.0303L17.7259 12.6319V12.6255Z" fill="#12AAFF"/>
<path d="M14.9896 7.992C15.028 7.992 15.0664 8.0048 15.0984 8.024L20.9736 11.416C21.044 11.4544 21.0824 11.5312 21.0824 11.608V18.392C21.0824 18.4688 21.0376 18.5456 20.9736 18.584L15.0984 21.976C15.0664 21.9952 15.028 22.008 14.9896 22.008C14.9512 22.008 14.9128 21.9952 14.8808 21.976L9.00564 18.584C8.93524 18.5456 8.89684 18.4688 8.89684 18.392V11.6016C8.89684 11.5248 8.94164 11.448 9.00564 11.4096L14.8808 8.0176C14.9128 7.9984 14.9512 7.9856 14.9896 7.9856V7.992ZM14.9896 7C14.7784 7 14.5736 7.0512 14.3816 7.16L8.50644 10.552C8.12884 10.7696 7.89844 11.1664 7.89844 11.6016V18.3856C7.89844 18.8208 8.12884 19.2176 8.50644 19.4352L14.3816 22.8272C14.5672 22.936 14.7784 22.9872 14.9896 22.9872C15.2008 22.9872 15.4056 22.936 15.5976 22.8272L21.4728 19.4352C21.8504 19.2176 22.0808 18.8208 22.0808 18.3856V11.6016C22.0808 11.1664 21.8504 10.7696 21.4728 10.552L15.5912 7.16C15.4056 7.0512 15.1944 7 14.9832 7H14.9896Z" fill="#9DCCED"/>
<path d="M11.1016 20.9535L11.6456 19.4688L12.7336 20.3711L11.716 21.3055L11.1016 20.9535Z" fill="#213147"/>
<path d="M14.4891 11.1236H12.9979C12.8891 11.1236 12.7867 11.194 12.7483 11.2964L9.55469 20.0516L11.0971 20.9412L14.6171 11.2964C14.6491 11.2068 14.5851 11.1172 14.4955 11.1172L14.4891 11.1236Z" fill="white"/>
<path d="M17.0997 11.1236H15.6085C15.4997 11.1236 15.3973 11.194 15.3589 11.2964L11.7109 21.2932L13.2533 22.1828L17.2213 11.2964C17.2533 11.2068 17.1893 11.1172 17.0997 11.1172V11.1236Z" fill="white"/>
</g>
<defs>
<clipPath id="clip0_4300_2079">
<rect width="16" height="16" fill="white" transform="translate(7 7)"/>
</clipPath>
</defs>
</svg>
