<svg width="30" height="30" viewBox="0 0 30 30" fill="none" xmlns="http://www.w3.org/2000/svg">
<rect x="0.301502" y="0.301502" width="29.397" height="29.397" rx="14.6985" fill="#161616"/>
<rect x="0.301502" y="0.301502" width="29.397" height="29.397" rx="14.6985" stroke="#202020" stroke-width="0.603004"/>
<path fill-rule="evenodd" clip-rule="evenodd" d="M10.9846 20.4038C9.34554 19.1749 8.28211 17.2106 8.28211 14.9985C8.28211 11.2748 11.2928 8.25361 15.0035 8.25361C18.0673 8.25361 21.4127 10.0909 22.221 12.9052C21.3168 9.76112 18.4286 7.46094 15.0035 7.46094C10.856 7.46094 7.49219 10.8364 7.49219 14.9985C7.49219 19.1605 10.856 22.536 15.0035 22.536C19.1511 22.536 22.5149 19.1605 22.5149 14.9985V14.6011H22.1026C22.0904 14.6011 22.072 14.6011 22.0475 14.6011C21.9985 14.6011 21.9291 14.5991 21.8393 14.595C21.6617 14.5889 21.4168 14.5765 21.1413 14.552C20.5779 14.5028 19.9349 14.4065 19.4981 14.2304C18.7939 13.9477 18.3959 13.575 17.9428 13.1366L17.9162 13.1121C17.4611 12.6737 16.9508 12.1801 16.0629 11.7623C15.1893 11.3506 14.2239 11.4161 13.5156 11.5636C13.1563 11.6373 12.8461 11.7356 12.6277 11.8155C12.5174 11.8544 12.4297 11.8913 12.3685 11.9159C12.0113 12.0675 11.6643 12.2457 11.3152 12.4115C11.3152 12.4115 12.0031 12.6 12.3419 12.7065C12.3542 12.7106 12.3725 12.7167 12.3991 12.7249C12.4501 12.7413 12.5236 12.7679 12.6113 12.8048C12.791 12.8786 13.0257 12.9871 13.2584 13.1387C13.6258 13.3742 13.9299 13.6733 14.0544 14.0379C13.2768 14.1403 12.546 14.4844 11.999 14.806C11.6683 15.0005 11.3928 15.1972 11.1989 15.3426C11.103 15.4163 11.0254 15.4778 10.9723 15.5208C10.9274 15.5577 10.2253 16.1783 10.2253 16.1783C10.2253 16.1783 11.1315 16.2745 11.5785 16.3647C11.8765 16.4241 12.2766 16.5224 12.6971 16.6678C13.1176 16.8153 13.5421 17.0078 13.8952 17.2557C14.2483 17.5035 14.5075 17.7882 14.6341 18.1159C15.0056 19.0704 14.6402 19.9983 13.9075 20.5206C13.1829 21.0367 12.0827 21.1596 10.9825 20.4018L10.9846 20.4038ZM13.5482 21.5836C13.8442 21.4874 14.1197 21.346 14.3688 21.1699C15.3648 20.4591 15.8894 19.1564 15.373 17.8292C15.1689 17.3069 14.7811 16.9095 14.3504 16.6064C13.9177 16.3032 13.4217 16.082 12.9604 15.9202C12.6583 15.8137 12.3644 15.7318 12.1092 15.6703C12.2011 15.6109 12.297 15.5495 12.4011 15.488C13.0094 15.1296 13.7768 14.7998 14.5116 14.7998C15.62 14.7998 16.4446 15.1419 17.2325 15.5065C17.3039 15.5392 17.3754 15.574 17.4488 15.6068C18.153 15.9386 18.8919 16.2868 19.7512 16.2868C20.6105 16.2868 21.2331 16.0513 21.6801 15.8055C21.2821 19.1482 18.447 21.7413 15.0076 21.7413C14.5075 21.7413 14.0197 21.686 13.5523 21.5836H13.5482ZM20.8228 15.3201C20.5268 15.4204 20.1676 15.4942 19.7492 15.4942C19.0756 15.4942 18.4959 15.2238 17.7611 14.8797C17.6958 14.849 17.6305 14.8182 17.5631 14.7875C16.8263 14.4455 15.9751 14.0829 14.8668 14.0174C14.7178 13.2821 14.1626 12.7782 13.685 12.471C13.6319 12.4361 13.5789 12.4034 13.5258 12.3726C13.5727 12.3624 13.6217 12.3501 13.6727 12.3399C14.3136 12.2067 15.077 12.174 15.7241 12.4812C16.4916 12.8437 16.9263 13.2616 17.3774 13.6958L17.3937 13.7101C17.857 14.1567 18.349 14.6257 19.2042 14.9698C19.6798 15.1603 20.2962 15.2627 20.8228 15.3201Z" fill="url(#paint0_linear_3149_2562)"/>
<defs>
<linearGradient id="paint0_linear_3149_2562" x1="7.35747" y1="15.1378" x2="22.6497" y2="14.8591" gradientUnits="userSpaceOnUse">
<stop stop-color="#29CCB9"/>
<stop offset="0.49" stop-color="#0091FF"/>
<stop offset="1" stop-color="#FF66B7"/>
</linearGradient>
</defs>
</svg>
