<svg width="30" height="30" viewBox="0 0 30 30" fill="none" xmlns="http://www.w3.org/2000/svg">
<rect x="0.301502" y="0.301502" width="29.397" height="29.397" rx="14.6985" fill="#161616"/>
<rect x="0.301502" y="0.301502" width="29.397" height="29.397" rx="14.6985" stroke="#202020" stroke-width="0.603004"/>
<g clip-path="url(#clip0_3149_2553)">
<mask id="mask0_3149_2553" style="mask-type:luminance" maskUnits="userSpaceOnUse" x="8" y="7" width="53" height="16">
<path d="M60.7497 7.64062H8.42188V22.4402H60.7497V7.64062Z" fill="white"/>
</mask>
<g mask="url(#mask0_3149_2553)">
<path d="M12.3896 9.0785L14.7347 7.72421C14.8015 7.68568 14.8844 7.68568 14.9511 7.72421L21.1318 11.2926C21.1986 11.3312 21.2397 11.4024 21.2403 11.4795L21.2487 13.9338C21.2487 14.0115 21.2076 14.0834 21.1402 14.1219L18.7982 15.4743C18.6544 15.5578 18.474 15.4537 18.4733 15.2874L18.4656 13.0848C18.4656 13.0078 18.4239 12.9365 18.3571 12.898L12.3896 9.45351C12.2451 9.37003 12.2451 9.16197 12.3896 9.0785Z" fill="#B4F9BA"/>
<path d="M10.8749 20.1961L8.5304 18.8425C8.46297 18.8039 8.42188 18.7327 8.42188 18.655V11.5181C8.42188 11.4411 8.46297 11.3698 8.52976 11.3306L10.6514 10.0958C10.7188 10.0566 10.8017 10.0566 10.8685 10.0958L13.2104 11.4482C13.3542 11.5316 13.3549 11.739 13.211 11.8232L11.3077 12.9309C11.2409 12.9694 11.1998 13.0407 11.1998 13.1184V20.0093C11.1998 20.1762 11.0194 20.2802 10.8749 20.1968V20.1961Z" fill="#B4F9BA"/>
<path d="M21.2519 15.9441V18.6514C21.2519 18.7291 21.2108 18.8004 21.1434 18.8389L14.9627 22.4074C14.8959 22.4459 14.8138 22.4459 14.747 22.4074L12.617 21.1873C12.5495 21.1487 12.5078 21.0768 12.5078 20.9991V18.295C12.5078 18.1287 12.6876 18.0247 12.8321 18.1069L14.7431 19.2017C14.8099 19.2403 14.8921 19.2396 14.9589 19.2017L20.9263 15.756C21.0708 15.6725 21.2513 15.7765 21.2513 15.9435L21.2519 15.9441Z" fill="#B4F9BA"/>
</g>
</g>
<defs>
<clipPath id="clip0_3149_2553">
<rect width="13.0194" height="15.0751" fill="white" transform="translate(8.49219 7.46094)"/>
</clipPath>
</defs>
</svg>
