<svg width="146" height="39" viewBox="0 0 146 39" fill="none" xmlns="http://www.w3.org/2000/svg">
<g clip-path="url(#clip0_121_213)">
<rect width="146" height="39" fill="#120E1B" fill-opacity="0.5"/>
<path d="M44.2842 34.9822V3.70603H54.4772C57.8574 3.70603 60.4026 4.40914 62.1074 5.81534C63.812 7.21567 64.6642 9.29566 64.6642 12.0553C64.6642 13.5143 64.2556 14.815 63.4207 15.9341C62.5977 17.0649 61.471 17.9379 60.0407 18.5532C61.7278 19.0218 63.0588 19.9241 64.0397 21.2425C65.0204 22.5725 65.4991 24.1486 65.4991 25.9708C65.4991 28.7774 64.5942 30.9805 62.7787 32.5799C60.9689 34.1853 58.4119 34.9822 55.1019 34.9822H44.2842ZM48.4 20.4222V31.5956H55.1776C57.0926 31.5956 58.6046 31.1034 59.7078 30.1133C60.8112 29.1231 61.3659 27.7578 61.3659 26.0295C61.3659 22.2913 59.3284 20.4222 55.2419 20.4222H48.4ZM48.4 17.0356H54.5997C56.3978 17.0356 57.8339 16.5785 58.9198 15.6762C59.9939 14.774 60.5369 13.5553 60.5369 12.0085C60.5369 10.2859 60.0348 9.03787 59.0365 8.25861C58.0383 7.47348 56.5146 7.08677 54.4772 7.08677H48.4V17.0356ZM88.7747 26.8028H75.7096L72.7789 34.9881H68.5407L80.444 3.70603H84.0403L95.9612 34.9881H91.7463L88.7747 26.8028ZM76.9588 23.4162H87.5604L82.2481 8.79763L76.9588 23.4162ZM109.342 21.0433C105.821 20.0238 103.259 18.7699 101.647 17.2876C100.042 15.8052 99.2363 13.9713 99.2363 11.7975C99.2363 9.33668 100.223 7.29769 102.179 5.68057C104.146 4.06931 106.691 3.26074 109.826 3.26074C111.969 3.26074 113.883 3.67675 115.553 4.50874C117.234 5.33489 118.525 6.48328 119.447 7.94806C120.369 9.407 120.831 11.0065 120.831 12.735H116.703C116.703 10.8425 116.102 9.35426 114.905 8.27032C113.708 7.19224 112.01 6.64733 109.826 6.64733C107.8 6.64733 106.224 7.09263 105.092 7.98907C103.953 8.89139 103.387 10.1277 103.387 11.7214C103.387 12.9987 103.918 14.0826 105.004 14.9615C106.078 15.8403 107.911 16.6489 110.503 17.3813C113.09 18.1137 115.121 18.9223 116.581 19.8012C118.04 20.6799 119.126 21.7053 119.832 22.8889C120.539 24.0608 120.889 25.4493 120.889 27.0372C120.889 29.5743 119.902 31.6073 117.935 33.1308C115.962 34.6541 113.335 35.4159 110.036 35.4159C107.894 35.4159 105.892 35.0056 104.041 34.1853C102.19 33.3591 100.76 32.2285 99.7501 30.7987C98.74 29.3691 98.2438 27.7403 98.2438 25.9239H102.371C102.371 27.8105 103.066 29.2988 104.461 30.3886C105.851 31.4784 107.707 32.0292 110.036 32.0292C112.208 32.0292 113.866 31.5839 115.022 30.6933C116.184 29.8086 116.762 28.5957 116.762 27.0723C116.762 25.5373 116.219 24.3537 115.156 23.5159C114.1 22.6897 112.156 21.8577 109.342 21.0433ZM143.791 20.5511H130.288V31.5956H145.974V34.9822H126.178V3.70603H145.764V7.09263H130.288V17.1645H143.791V20.5511Z" fill="white"/>
<path d="M18.6093 38.064C28.9074 38.064 37.2614 29.6854 37.2614 19.344C37.2614 9.00847 28.9132 0.624023 18.6093 0.624023C8.84256 0.624023 0.821296 8.17061 0.0273438 17.7679H24.675V20.9143H0.0273438C0.821296 30.5175 8.84256 38.064 18.6093 38.064Z" fill="white"/>
</g>
<defs>
<clipPath id="clip0_121_213">
<rect width="146" height="39" fill="white"/>
</clipPath>
</defs>
</svg>
