<svg width="330" height="40" viewBox="0 0 330 40" fill="none" xmlns="http://www.w3.org/2000/svg">
<g clip-path="url(#clip0_121_224)">
<rect width="330" height="40" fill="#120E1B" fill-opacity="0.5"/>
<g clip-path="url(#clip1_121_224)">
<path d="M77.996 30.3961C77.836 30.5061 77.672 30.6121 77.504 30.7101L72 33.9161L50.418 21.3461V10.6401L71.99 -1.91992L77.504 1.29208C77.698 1.40408 77.884 1.52608 78.066 1.65408L62.65 10.6161V10.5961L56.472 14.2081V17.8841L62.652 21.4901V17.8401L81.146 7.06808C81.166 7.27808 81.174 7.49008 81.174 7.70408V14.1881L68.858 21.3981V25.0981L77.998 30.3981L77.996 30.3961Z" fill="#E5E9EB"/>
<path d="M65.812 -5.51988L63.258 -7.00788C62.1441 -7.65763 60.8776 -8 59.588 -8C58.2984 -8 57.0319 -7.65763 55.918 -7.00788L41.668 1.29012C40.5499 1.94499 39.6229 2.8814 38.9793 4.00605C38.3358 5.1307 37.9981 6.40435 38 7.70012V24.2961C38 26.9401 39.4 29.3861 41.67 30.7081L55.916 39.0061C57.03 39.6557 58.2965 39.9979 59.586 39.9979C60.8756 39.9979 62.142 39.6557 63.256 39.0061L65.822 37.5121L44.24 24.9441V7.04812L44.248 7.05412L44.24 7.04412L65.812 -5.51988Z" fill="#E5E9EB"/>
<path d="M225.672 27.734V4.564H229.638V24.022H240.362V27.734H225.672ZM248.042 22.464L245.688 27.734H241.452L251.806 4.564H256.042L266.396 27.734H262.16L259.808 22.464H248.042ZM258.194 18.85L253.924 9.304L249.656 18.85H258.194ZM279.952 27.734H269.664V4.564H278.808C280.4 4.564 281.766 4.752 282.91 5.128C284.076 5.502 284.938 6.012 285.498 6.652C286.574 7.846 287.112 9.192 287.112 10.696C287.112 12.508 286.53 13.856 285.364 14.74C285.082 14.9526 284.79 15.1521 284.49 15.338C284.332 15.404 284.052 15.524 283.65 15.702C285.106 16.01 286.26 16.662 287.112 17.658C287.986 18.63 288.424 19.846 288.424 21.304C288.424 22.918 287.862 24.344 286.742 25.58C285.42 27.016 283.156 27.734 279.952 27.734ZM273.632 14.176H278.674C281.542 14.176 282.976 13.216 282.976 11.292C282.976 10.188 282.63 9.392 281.934 8.906C281.24 8.42 280.164 8.176 278.708 8.176H273.632V14.176ZM273.632 24.122H279.85C281.308 24.122 282.416 23.902 283.178 23.458C283.964 22.994 284.356 22.132 284.356 20.874C284.356 18.818 282.686 17.79 279.346 17.79H273.632V24.122ZM300.494 7.614C299.35 7.614 298.41 7.846 297.67 8.31C296.93 8.774 296.56 9.48 296.56 10.43C296.56 11.36 296.93 12.078 297.67 12.586C298.41 13.072 299.978 13.602 302.376 14.176C304.796 14.752 306.612 15.558 307.822 16.596C309.056 17.636 309.672 19.172 309.672 21.204C309.672 23.216 308.898 24.85 307.352 26.11C305.806 27.37 303.778 28 301.268 28C297.592 28 294.33 26.752 291.484 24.254L293.972 21.304C296.348 23.338 298.812 24.354 301.368 24.354C302.646 24.354 303.654 24.088 304.394 23.558C305.156 23.006 305.536 22.288 305.536 21.404C305.536 20.498 305.178 19.802 304.46 19.316C303.766 18.806 302.556 18.354 300.83 17.956C299.104 17.536 297.794 17.16 296.896 16.828C296.038 16.4957 295.233 16.0374 294.51 15.468C293.12 14.432 292.426 12.84 292.426 10.696C292.426 8.552 293.21 6.906 294.778 5.756C296.37 4.586 298.332 4 300.662 4C302.164 4 303.654 4.244 305.134 4.73C306.528 5.17037 307.828 5.86696 308.966 6.784L306.848 9.734C306.152 9.116 305.212 8.608 304.024 8.21C302.887 7.82102 301.695 7.61972 300.494 7.614ZM110.4 4C106.874 4 103.894 5.14 101.522 7.444L101.52 7.446C99.172 9.752 98 12.646 98 16.062C98 19.472 99.146 22.348 101.46 24.616C103.792 26.876 106.712 28 110.156 28C113.672 28 116.672 26.626 119.102 23.932L119.67 23.304L116.13 19.674L115.486 20.278C114.554 21.152 113.692 21.764 112.902 22.142C112.148 22.482 111.21 22.67 110.062 22.67C108.308 22.67 106.796 22.046 105.488 20.758C104.216 19.466 103.576 17.878 103.576 15.938C103.576 13.978 104.226 12.434 105.502 11.23L105.506 11.224C106.798 9.986 108.39 9.36 110.34 9.36C111.472 9.36 112.408 9.54 113.17 9.868L113.176 9.872C113.962 10.202 114.842 10.812 115.816 11.746L116.482 12.386L119.96 8.58L119.408 7.972C117.004 5.334 113.982 4 110.4 4Z" fill="#E5E9EB"/>
<path fill-rule="evenodd" clip-rule="evenodd" d="M180.686 4C177.274 4 174.366 5.146 172.022 7.446C169.674 9.728 168.502 12.602 168.502 16C168.502 19.38 169.674 22.252 172.022 24.554L172.024 24.556C174.368 26.836 177.276 27.97 180.684 27.97C184.094 27.97 187.002 26.836 189.344 24.556L189.348 24.554C191.696 22.252 192.868 19.38 192.868 16C192.868 12.602 191.696 9.728 189.348 7.446C187.004 5.146 184.098 4 180.686 4ZM174.014 16C174.014 14.06 174.654 12.446 175.938 11.108C177.238 9.774 178.802 9.114 180.686 9.114C182.568 9.114 184.122 9.774 185.4 11.106L185.404 11.11C186.706 12.45 187.356 14.062 187.356 16C187.356 17.916 186.708 19.518 185.404 20.86L185.4 20.864C184.12 22.196 182.568 22.854 180.684 22.854C178.802 22.854 177.238 22.196 175.938 20.862C174.654 19.522 174.014 17.918 174.014 16Z" fill="#E5E9EB"/>
<path d="M203.152 4C200.868 4 198.882 4.584 197.25 5.802C195.562 7.056 194.74 8.862 194.74 11.094C194.74 13.276 195.446 15.046 196.986 16.22C197.694 16.788 198.494 17.248 199.384 17.604L199.404 17.61C200.27 17.936 201.504 18.294 203.09 18.684L203.1 18.686C204.654 19.05 205.604 19.436 206.08 19.79L206.092 19.8L206.106 19.808C206.5 20.08 206.696 20.436 206.696 20.998C206.696 21.51 206.5 21.91 206.024 22.262C205.554 22.602 204.844 22.824 203.796 22.824C201.73 22.824 199.684 21.996 197.642 20.224L196.948 19.62L193.532 23.728L194.184 24.308C196.938 26.758 200.124 28 203.704 28C206.15 28 208.218 27.376 209.828 26.046C211.448 24.706 212.27 22.938 212.27 20.814C212.27 18.748 211.646 17.046 210.272 15.87C209.016 14.776 207.204 13.986 204.928 13.438C204.04 13.2291 203.162 12.9809 202.296 12.694C201.61 12.46 201.172 12.254 200.932 12.098C200.518 11.804 200.314 11.424 200.314 10.85C200.314 10.242 200.524 9.894 200.908 9.648C201.4 9.334 202.078 9.146 203 9.146C203.956 9.146 204.932 9.31 205.928 9.65C206.932 9.99 207.672 10.408 208.188 10.874L208.944 11.554L211.944 7.318L211.304 6.784C210.182 5.86441 208.897 5.16423 207.516 4.72C206.11 4.24563 204.636 4.00247 203.152 4ZM127.376 4.52H121.956V27.754H127.376V18.986H136.21V27.754H141.63V4.522H136.21V13.81H127.376V4.52Z" fill="#E5E9EB"/>
<path fill-rule="evenodd" clip-rule="evenodd" d="M158.948 4.52002H153.908L143.672 27.754H149.506L151.652 22.88H161.206L163.352 27.754H169.186L158.948 4.52002ZM153.918 17.734L156.428 12.042L158.938 17.734H153.918Z" fill="#E5E9EB"/>
</g>
</g>
<defs>
<clipPath id="clip0_121_224">
<rect width="330" height="40" fill="white"/>
</clipPath>
<clipPath id="clip1_121_224">
<rect width="272" height="48" fill="white" transform="translate(38 -8)"/>
</clipPath>
</defs>
</svg>
