<svg viewBox="0 0 316 170" fill="none" xmlns="http://www.w3.org/2000/svg">
<circle cx="248.64" cy="102.31" r="29.5139" transform="rotate(-22.3799 248.64 102.31)" fill="url(#paint0_linear_162_2133)"/>
<circle cx="249.527" cy="98.959" r="29.5139" transform="rotate(-22.3799 249.527 98.959)" fill="url(#paint1_radial_162_2133)"/>
<path d="M261.034 95.1099C262.294 90.2361 257.29 87.1936 252.602 85.9817C247.915 84.7697 242.285 86.1836 241.297 90.0068C240.308 93.8301 241.852 97.0224 250.004 100.103C258.157 103.184 259.635 106.628 258.755 110.031C257.875 113.434 252.63 115.395 246.463 113.801C240.295 112.206 235.421 108.66 236.551 104.29" stroke="white" stroke-opacity="0.64" stroke-width="1.83029"/>
<line x1="245.043" y1="118.335" x2="254.545" y2="81.5831" stroke="white" stroke-opacity="0.64" stroke-width="1.83029"/>
<circle cx="140.681" cy="70.9738" r="29.5139" transform="rotate(11.3408 140.681 70.9738)" fill="url(#paint2_linear_162_2133)"/>
<circle cx="139.905" cy="67.4288" r="29.5139" transform="rotate(11.3408 139.905 67.4288)" fill="url(#paint3_radial_162_2133)"/>
<path d="M131.163 52.1599C124.55 55.8058 120.825 63.4835 122.524 71.2362C124.222 78.9888 130.815 84.4066 138.346 84.9545" stroke="white" stroke-opacity="0.64" stroke-width="1.83029"/>
<path d="M141.464 49.9034C148.996 50.4513 155.589 55.8691 157.287 63.6218C158.985 71.3745 155.26 79.0521 148.647 82.698" stroke="white" stroke-opacity="0.64" stroke-width="1.83029"/>
<path d="M145.832 60.8068C145.13 57.2771 140.963 56.8721 137.568 57.5475C134.173 58.223 130.988 60.8818 131.538 63.6507C132.089 66.4196 134.075 67.9958 140.281 67.4475C146.487 66.8992 148.509 68.6576 148.999 71.1221C149.49 73.5866 146.721 76.4787 142.255 77.3675C137.788 78.2562 133.548 77.4867 132.919 74.3216" stroke="white" stroke-opacity="0.64" stroke-width="1.83029"/>
<line x1="138.049" y1="58.0552" x2="137.201" y2="54.1816" stroke="white" stroke-opacity="0.64" stroke-width="1.83029"/>
<line x1="142.995" y1="80.6352" x2="142.147" y2="76.7617" stroke="white" stroke-opacity="0.64" stroke-width="1.83029"/>
<circle cx="170.175" cy="117.7" r="29.5139" transform="rotate(23.6948 170.175 117.7)" fill="url(#paint4_linear_162_2133)"/>
<circle cx="171.059" cy="114.131" r="29.5139" transform="rotate(23.6948 171.059 114.131)" fill="url(#paint5_radial_162_2133)"/>
<line x1="160.627" y1="102.662" x2="185.969" y2="109.452" stroke="white" stroke-opacity="0.64" stroke-width="1.83029"/>
<path d="M172.988 106.923L170.778 115.169M169.832 118.699L167.212 128.478" stroke="white" stroke-opacity="0.64" stroke-width="3.20302"/>
<path d="M184.648 119.2C184.569 119.496 184.278 119.87 183.495 120.208C182.724 120.54 181.617 120.771 180.218 120.856C177.43 121.026 173.694 120.609 169.687 119.535C165.68 118.461 162.235 116.955 159.905 115.413C158.737 114.64 157.893 113.887 157.392 113.213C156.883 112.53 156.817 112.06 156.897 111.764C156.976 111.468 157.267 111.094 158.05 110.757C158.821 110.424 159.928 110.194 161.327 110.108C164.115 109.938 167.851 110.356 171.858 111.43C175.865 112.503 179.31 114.01 181.64 115.551C182.808 116.325 183.652 117.078 184.153 117.751C184.662 118.435 184.728 118.904 184.648 119.2Z" stroke="white" stroke-opacity="0.64" stroke-width="1.83029"/>
<circle cx="66.5667" cy="104.642" r="29.5139" transform="rotate(-22.3799 66.5667 104.642)" fill="url(#paint6_linear_162_2133)"/>
<circle cx="66.7445" cy="101.62" r="29.5139" transform="rotate(-22.3799 66.7445 101.62)" fill="url(#paint7_radial_162_2133)"/>
<path d="M67.9328 90.3286L54.1592 96L57.9635 105.239L71.7371 99.5677C74.7452 98.3291 75.7677 95.7469 74.6264 92.9752C73.4851 90.2035 70.5112 89.2669 67.9328 90.3286Z" stroke="white" stroke-opacity="0.64" stroke-width="1.83029"/>
<path d="M58.3016 106.053L61.7682 114.477L75.5418 108.806C78.5499 107.567 79.5724 104.985 78.4311 102.213C77.2898 99.4418 74.3158 98.5052 71.7375 99.5669" stroke="white" stroke-opacity="0.64" stroke-width="1.83029"/>
<line y1="-0.915147" x2="6.93479" y2="-0.915147" transform="matrix(-0.389047 -0.921218 0.928007 -0.372563 66.7432 91.791)" stroke="white" stroke-opacity="0.64" stroke-width="1.83029"/>
<line y1="-0.915147" x2="6.93479" y2="-0.915147" transform="matrix(-0.389047 -0.921218 0.928007 -0.372563 60.6621 94.2754)" stroke="white" stroke-opacity="0.64" stroke-width="1.83029"/>
<line y1="-0.915147" x2="6.86629" y2="-0.915147" transform="matrix(-0.392337 -0.919822 0.929277 -0.369384 76.3223 115.058)" stroke="white" stroke-opacity="0.64" stroke-width="1.83029"/>
<line y1="-0.915147" x2="6.86629" y2="-0.915147" transform="matrix(-0.392337 -0.919822 0.929277 -0.369384 70.1387 117.515)" stroke="white" stroke-opacity="0.64" stroke-width="1.83029"/>
<g opacity="0.8">
<ellipse cx="26.5682" cy="12.6664" rx="26.5682" ry="12.6664" transform="matrix(0.763154 0.646216 -0.646801 0.762659 90.1558 97.9277)" fill="url(#paint8_linear_162_2133)"/>
<ellipse cx="26.3351" cy="12.6664" rx="26.3351" ry="12.6664" transform="matrix(0.763154 0.646216 -0.646801 0.762659 94.2329 94.4238)" fill="url(#paint9_radial_162_2133)"/>
</g>
<ellipse opacity="0.5" cx="29.0848" cy="13.8662" rx="29.0848" ry="13.8662" transform="matrix(-0.763154 0.646216 0.646801 0.762659 238.411 22.9336)" fill="url(#paint10_linear_162_2133)"/>
<ellipse opacity="0.5" cx="28.8296" cy="13.8662" rx="28.8296" ry="13.8662" transform="matrix(-0.763154 0.646216 0.646801 0.762659 234.833 19.0967)" fill="url(#paint11_radial_162_2133)"/>
<defs>
<linearGradient id="paint0_linear_162_2133" x1="257.992" y1="85.3766" x2="222.521" y2="147.146" gradientUnits="userSpaceOnUse">
<stop offset="0.224283" stop-color="#072C27" stop-opacity="0"/>
<stop offset="1" stop-color="#008E5C"/>
</linearGradient>
<radialGradient id="paint1_radial_162_2133" cx="0" cy="0" r="1" gradientUnits="userSpaceOnUse" gradientTransform="translate(258.135 90.3508) rotate(102.724) scale(39.0819)">
<stop stop-color="white" stop-opacity="0.05"/>
<stop offset="0.0001" stop-color="#0F2D20" stop-opacity="0.2"/>
<stop offset="1" stop-color="#00FFA5" stop-opacity="0.71"/>
</radialGradient>
<linearGradient id="paint2_linear_162_2133" x1="134.985" y1="67.2951" x2="142.346" y2="113.422" gradientUnits="userSpaceOnUse">
<stop offset="0.0894069" stop-color="#0C1829" stop-opacity="0"/>
<stop offset="1" stop-color="#325689"/>
</linearGradient>
<radialGradient id="paint3_radial_162_2133" cx="0" cy="0" r="1" gradientUnits="userSpaceOnUse" gradientTransform="translate(143.835 58.0038) rotate(95.7627) scale(39.1367)">
<stop stop-color="#05152C" stop-opacity="0.09"/>
<stop offset="1" stop-color="#284D82"/>
</radialGradient>
<linearGradient id="paint4_linear_162_2133" x1="164.478" y1="114.021" x2="171.417" y2="153.165" gradientUnits="userSpaceOnUse">
<stop offset="0.0894069" stop-color="#233135" stop-opacity="0"/>
<stop offset="1" stop-color="#126A82"/>
</linearGradient>
<radialGradient id="paint5_radial_162_2133" cx="0" cy="0" r="1" gradientUnits="userSpaceOnUse" gradientTransform="translate(175.101 104.307) rotate(95.8655) scale(39.5448)">
<stop stop-color="#0E3945" stop-opacity="0.15"/>
<stop offset="1" stop-color="#4A97AD"/>
</radialGradient>
<linearGradient id="paint6_linear_162_2133" x1="70.6964" y1="101.395" x2="58.1899" y2="136.561" gradientUnits="userSpaceOnUse">
<stop offset="0.0894069" stop-color="#271B08" stop-opacity="0"/>
<stop offset="1" stop-color="#A76B11"/>
</linearGradient>
<radialGradient id="paint7_radial_162_2133" cx="0" cy="0" r="1" gradientUnits="userSpaceOnUse" gradientTransform="translate(75.3527 93.0118) rotate(102.407) scale(45.8816)">
<stop stop-color="#331F00" stop-opacity="0.43"/>
<stop offset="1" stop-color="#FFB443"/>
</radialGradient>
<linearGradient id="paint8_linear_162_2133" x1="26.6435" y1="-1.09918" x2="27.7834" y2="25.2349" gradientUnits="userSpaceOnUse">
<stop offset="0.375867" stop-color="#2E2E2E"/>
<stop offset="1" stop-color="#A5A5A5"/>
</linearGradient>
<radialGradient id="paint9_radial_162_2133" cx="0" cy="0" r="1" gradientUnits="userSpaceOnUse" gradientTransform="translate(26.3351 12.6664) rotate(90) scale(12.6664 26.3351)">
<stop stop-color="#818181"/>
<stop offset="1" stop-color="#E3E3E3"/>
</radialGradient>
<linearGradient id="paint10_linear_162_2133" x1="29.1672" y1="-1.20329" x2="30.4151" y2="27.6252" gradientUnits="userSpaceOnUse">
<stop offset="0.375867" stop-color="#2E2E2E"/>
<stop offset="1" stop-color="#A5A5A5"/>
</linearGradient>
<radialGradient id="paint11_radial_162_2133" cx="0" cy="0" r="1" gradientUnits="userSpaceOnUse" gradientTransform="translate(28.8296 13.8662) rotate(90) scale(13.8662 28.8296)">
<stop stop-color="#818181"/>
<stop offset="1" stop-color="#E3E3E3"/>
</radialGradient>
</defs>
</svg>
