<svg width="224" height="32" viewBox="0 0 224 32" fill="none" xmlns="http://www.w3.org/2000/svg">
<rect width="296" height="32" transform="translate(-72)" fill="#120E1B" fill-opacity="0.5"/>
<path d="M-15.9576 9.7877V14.7147H-9.2483V16.9318H-15.9576V24.0759H-18.671V7.52129H-7.42302V9.73844L-15.9576 9.7877ZM7.57442 7.57056C9.15298 7.57056 9.79442 7.81691 10.485 8.26034C11.373 9.1472 12.0637 10.2804 12.0637 15.848C12.0637 21.4153 11.373 22.5486 10.485 23.4355C9.79442 23.8789 9.35042 24.1253 7.57442 24.1253H2.64098C1.06242 24.1253 0.420982 23.8789 -0.269583 23.4355C-1.15758 22.5486 -1.8483 21.4153 -1.8483 15.848C-1.8483 10.2804 -1.15758 9.1472 -0.269583 8.26034C0.420982 7.81691 0.864983 7.57056 2.64098 7.57056H7.57442ZM1.50641 21.6617C1.75298 21.9081 1.95041 21.9081 2.83842 21.9081H7.3277C8.2157 21.9081 8.46242 21.9081 8.6597 21.6617C8.90642 21.4153 9.35042 20.7749 9.35042 15.848C9.35042 11.1673 8.90642 10.2311 8.6597 10.0341C8.41298 9.7877 8.2157 9.7877 7.3277 9.7877H2.83842C1.95041 9.7877 1.7037 9.7877 1.50641 10.0341C1.30898 10.2804 0.815699 10.9209 0.815699 15.848C1.06242 20.5285 1.30898 21.4647 1.50641 21.6617ZM32.685 17.1782C32.685 21.4153 32.241 22.1052 31.353 22.992C30.465 23.6819 29.3304 23.8789 27.1104 23.8789H24.6437C22.4237 23.8789 21.289 23.6325 20.401 22.992C19.513 22.1052 19.069 21.2183 19.069 17.1782V7.57056H21.7824V17.8679C21.7824 20.7749 22.029 21.2183 22.473 21.4647C22.7197 21.711 23.1637 21.9081 25.1864 21.9081H26.765C28.541 21.9081 28.985 21.9081 29.4784 21.4647C29.9224 21.0213 29.9224 21.0213 29.9224 17.8679V7.57056H32.6357V17.1782H32.685ZM54.1944 24.1253H51.2837C50.593 24.1253 50.3957 23.8789 49.9517 23.4355L43.2424 11.118H42.7984V24.0759H40.085V7.52129H43.2424C43.933 7.52129 44.1304 7.76763 44.5744 8.21106L51.0864 19.8388H51.5304V7.32422H54.2437V24.1253H54.1944ZM69.4384 7.57056C71.461 7.57056 72.793 7.81691 73.681 8.70377C74.8157 9.59063 75.457 11.857 75.457 15.848C75.457 19.888 75.013 21.9081 73.681 22.992C72.793 23.8789 71.6584 24.1253 69.4384 24.1253H61.841V7.57056H69.4384ZM71.4117 10.2311C70.9677 9.7877 70.277 9.7877 69.389 9.7877H64.7024V21.8588H69.389C70.5237 21.8588 70.9677 21.8588 71.4117 21.4153C72.1024 20.7257 72.2997 19.6416 72.2997 16.045C72.5464 12.0541 72.1024 10.9209 71.4117 10.2311ZM94.056 24.1253H82.1656V7.57056H94.056V9.7877H84.88V14.2713H92.4768V16.4884H84.88V21.6125H94.056V24.1253ZM110.434 17.6217C110.188 17.3753 109.546 17.3753 108.658 17.3753H103.725V24.3223H101.012V7.76763H110.434C111.569 7.76763 112.457 8.01399 112.901 8.45741C113.592 9.1472 114.036 10.0341 114.036 12.4976C114.036 15.4045 113.148 16.2914 111.125 16.5376C112.901 16.784 113.592 17.2275 113.838 19.691C113.838 21.9081 114.085 23.4847 114.085 24.3715H111.372C111.125 23.2384 111.125 21.6617 111.125 19.888C110.878 18.3113 110.632 17.8679 110.434 17.6217ZM109.546 15.1581C110.237 15.1581 110.434 14.9118 110.681 14.9118C110.928 14.6654 111.125 14.222 111.125 12.4483C111.125 10.6746 110.878 10.2311 110.681 9.98478C110.484 9.73844 110.237 9.73844 109.546 9.73844H103.725V15.1088L109.546 15.1581ZM132.832 23.4355C132.388 23.8789 131.5 24.1253 130.118 24.1253H124.297C122.965 24.1253 122.077 23.8789 121.584 23.4355C120.893 22.7456 120.696 21.8588 120.696 18.952H123.409C123.409 20.9719 123.656 21.4153 123.656 21.6617C123.902 21.9081 124.1 21.9081 124.79 21.9081H129.724C130.414 21.9081 130.612 21.9081 130.858 21.6617C131.105 21.4153 131.105 20.7749 131.105 19.4446C131.105 18.3113 131.105 17.8679 130.858 17.6709C130.612 17.4245 130.414 17.4245 129.724 17.4245L124.346 16.9811C123.014 16.7348 122.324 16.5376 121.88 16.0942C121.189 15.4045 120.992 14.764 120.992 12.4976C120.992 10.2804 121.238 9.34427 122.126 8.45741C122.57 8.01399 123.458 7.76763 124.84 7.76763H130.217C131.549 7.76763 132.437 8.01399 132.93 8.45741C133.621 9.1472 133.818 9.7877 133.818 12.941H131.105C131.105 10.9209 130.858 10.4775 130.858 10.4775C130.612 10.2311 130.414 10.2311 129.724 10.2311H125.234C124.544 10.2311 124.346 10.2311 124.1 10.4775C123.853 10.7238 123.853 11.3643 123.853 12.6946C123.853 13.8278 123.853 14.2713 124.1 14.4683C124.346 14.7147 124.544 14.7147 125.234 14.7147L130.612 15.1581C131.746 15.1581 132.634 15.4045 133.078 16.045C133.769 16.7348 133.966 17.3753 133.966 19.8388C133.966 21.6617 133.72 22.5486 132.832 23.4355ZM152.762 9.7877V14.7147H159.472V16.9318H152.762V24.0759H150.049V7.52129H161.248V9.73844L152.762 9.7877ZM181.228 17.1782C181.228 21.4153 180.784 22.1052 179.896 22.992C179.008 23.6819 177.873 23.8789 175.653 23.8789H173.186C170.966 23.8789 169.832 23.6325 168.944 22.992C168.056 22.1052 167.612 21.2183 167.612 17.1782V7.57056H170.325V17.8679C170.325 20.7749 170.572 21.2183 171.016 21.4647C171.262 21.711 171.706 21.9081 173.729 21.9081H175.308C177.084 21.9081 177.528 21.9081 178.021 21.4647C178.465 21.0213 178.465 21.0213 178.465 17.8679V7.57056H181.178V17.1782H181.228ZM202.737 24.1253H199.826C199.136 24.1253 198.938 23.8789 198.494 23.4355L191.785 11.118H191.341V24.0759H188.628V7.52129H191.785C192.476 7.52129 192.673 7.76763 193.117 8.21106L199.629 19.8388H200.073V7.32422H202.786V24.1253H202.737ZM217.981 7.57056C220.004 7.57056 221.336 7.81691 222.224 8.70377C223.358 9.59063 224 11.857 224 15.848C224 19.888 223.556 21.9081 222.224 22.992C221.336 23.8789 220.201 24.1253 217.981 24.1253H210.384V7.57056H217.981ZM220.004 10.2311C219.56 9.7877 218.869 9.7877 217.981 9.7877H213.294V21.8588H217.981C219.116 21.8588 219.56 21.8588 220.004 21.4153C220.694 20.7257 220.892 19.6416 220.892 16.045C220.892 12.0541 220.645 10.9209 220.004 10.2311Z" fill="white"/>
</svg>
