<svg width="330" height="83" viewBox="0 0 330 83" fill="none" xmlns="http://www.w3.org/2000/svg">
<rect width="330" height="83" fill="#120E1B" fill-opacity="0.5"/>
<g clip-path="url(#clip0_121_216)">
<mask id="mask0_121_216" style="mask-type:luminance" maskUnits="userSpaceOnUse" x="49" y="12" width="70" height="70">
<path d="M118.881 12H49.645V81.4118H118.881V12Z" fill="white"/>
</mask>
<g mask="url(#mask0_121_216)">
<path fill-rule="evenodd" clip-rule="evenodd" d="M74.8953 13.702C79.741 12.0819 84.9516 11.62 90.0031 12.3095C94.1053 12.8786 98.1014 14.2242 101.712 16.266C105.921 18.6359 109.618 21.9431 112.453 25.8795C114.696 28.9792 116.409 32.4805 117.484 36.1624C118.865 40.909 119.183 45.9635 118.44 50.8439C117.803 55.0481 116.356 59.125 114.212 62.787C112.778 65.2307 111.039 67.4933 109.047 69.4952C109.047 72.6751 109.047 75.855 109.047 79.0282C93.2978 79.0282 77.5483 79.0282 61.7986 79.0282C61.7986 75.8505 61.7986 72.6751 61.7986 69.5018C59.9068 67.5737 58.2274 65.4382 56.8401 63.1152C54.7491 59.6472 53.2888 55.7912 52.5652 51.7945C51.6625 46.8071 51.8749 41.6187 53.2091 36.7248C54.1783 33.1701 55.7382 29.7758 57.8026 26.7297C59.6545 23.985 61.9114 21.5213 64.4803 19.4393C67.5737 16.9221 71.1182 14.9673 74.8953 13.702ZM61.8119 21.8828C61.8119 37.7535 61.8119 53.6243 61.8119 69.4952C77.5526 69.4906 93.2934 69.4906 109.034 69.4952C109.034 53.6243 109.034 37.7535 109.034 21.8828C93.2934 21.8828 77.5526 21.8828 61.8119 21.8828Z" fill="white"/>
</g>
<path fill-rule="evenodd" clip-rule="evenodd" d="M196.839 22.639C196.981 22.5388 197.18 22.5817 197.35 22.5674C198.6 22.5817 199.849 22.5674 201.098 22.5817C201.325 22.5388 201.567 22.6962 201.538 22.954C201.51 28.9816 201.425 34.9948 201.396 41.0225C201.425 47.2076 201.51 53.3927 201.538 59.5778C201.567 59.7783 201.396 59.9645 201.198 59.9501C199.835 59.9645 198.472 59.9501 197.123 59.9643C196.925 59.9787 196.712 59.8784 196.698 59.6637C196.641 58.7045 196.74 57.7452 196.712 56.8002C196.749 52.5431 196.787 48.2861 196.825 44.0291C196.797 42.6261 196.896 41.2229 196.825 39.8198C196.797 34.2217 196.74 28.6236 196.683 23.0399C196.683 22.8967 196.698 22.7249 196.839 22.639ZM176.397 32.1172C178.583 31.7305 180.911 31.8737 182.956 32.7757C184.716 33.5345 186.15 34.9089 187.143 36.5411C187.115 35.3386 187.058 34.1214 187.044 32.9189C187.001 32.6898 187.158 32.4035 187.427 32.4607C188.833 32.4607 190.224 32.4463 191.63 32.4607C191.871 32.4463 191.97 32.7184 191.956 32.9189C191.913 35.8826 191.871 38.8463 191.842 41.81C191.715 47.766 191.928 53.7219 191.942 59.6637C191.928 59.8784 191.7 59.9787 191.516 59.9501C190.153 59.9501 188.804 59.9645 187.442 59.9501C187.229 59.9645 187.073 59.7783 187.101 59.5778C187.115 58.2463 187.172 56.9291 187.2 55.5976C186.306 57.0436 185.113 58.3322 183.651 59.177C181.579 60.3939 179.08 60.7089 176.738 60.3795C174.807 60.1219 172.947 59.3057 171.485 57.9885C169.952 56.6284 168.873 54.8243 168.192 52.8916C167.482 50.9015 167.184 48.7826 167.127 46.6778C167.099 44.3584 167.411 42.0104 168.178 39.8198C168.774 38.1447 169.64 36.5697 170.832 35.2669C172.294 33.6491 174.268 32.518 176.397 32.1172ZM178.796 35.5676C177.504 35.6964 176.227 36.1689 175.219 37.0279C173.87 38.1589 173.047 39.8056 172.607 41.4806C172.039 43.7428 171.996 46.1052 172.224 48.4102C172.479 50.6152 173.075 52.8773 174.523 54.6097C175.489 55.7836 176.894 56.5855 178.399 56.8002C180.5 57.1295 182.828 56.6714 184.418 55.1823C185.994 53.7077 186.746 51.5601 187.073 49.4697C187.399 47.2649 187.385 45.0028 187.03 42.8121C186.675 40.7076 185.88 38.5742 184.262 37.1282C182.799 35.7967 180.727 35.3242 178.796 35.5676ZM213.591 32.3032C215.749 31.7305 218.062 31.7734 220.178 32.475C222.264 33.1623 224.025 34.6656 225.16 36.5555C225.103 35.3099 225.076 34.0642 225.047 32.8186C225.019 32.5466 225.303 32.4177 225.53 32.4607C226.879 32.4607 228.242 32.4463 229.604 32.4607C229.802 32.4463 229.959 32.6181 229.945 32.8186C229.916 35.8826 229.873 38.9608 229.845 42.039C229.789 44.7307 229.789 47.4271 229.845 50.1283C229.859 53.3068 229.93 56.4852 229.945 59.678C229.93 59.8928 229.675 59.9787 229.491 59.9643C228.142 59.9501 226.779 59.9645 225.43 59.9501C225.16 59.9787 225.06 59.6637 225.09 59.4633C225.133 58.1747 225.16 56.8718 225.203 55.5832C224.238 57.1581 222.918 58.5327 221.271 59.3916C219.255 60.4512 216.87 60.6945 214.627 60.3653C212.554 60.0646 210.567 59.1053 209.091 57.602C206.592 55.1395 205.485 51.5743 205.215 48.1383C205.016 45.7616 205.187 43.3275 205.811 41.0225C206.322 39.1182 207.174 37.2857 208.409 35.7536C209.744 34.1072 211.561 32.8616 213.591 32.3032ZM216.785 35.5676C215.479 35.6964 214.201 36.1831 213.193 37.0423C211.859 38.1589 211.064 39.7911 210.624 41.452C210.042 43.6999 209.999 46.0622 210.226 48.3529C210.468 50.5436 211.05 52.8057 212.455 54.538C213.506 55.8409 215.081 56.6714 216.728 56.8432C218.744 57.0867 220.958 56.5855 222.449 55.1395C224.038 53.6504 224.776 51.4742 225.09 49.3552C225.43 46.9499 225.401 44.4874 224.89 42.1105C224.465 40.1778 223.627 38.2306 222.067 36.9564C220.618 35.7394 218.63 35.3242 216.785 35.5676ZM148.658 32.1314C150.873 31.8451 153.215 32.0884 155.217 33.1335C156.736 33.921 157.971 35.1952 158.879 36.6556C158.822 35.3672 158.751 34.0928 158.723 32.8186C158.709 32.5753 158.922 32.4177 159.135 32.4607C160.498 32.4607 161.86 32.4463 163.223 32.4607C163.479 32.4321 163.592 32.704 163.578 32.9189C163.55 35.8826 163.507 38.8463 163.493 41.81C163.408 44.5875 163.521 47.365 163.493 50.1427C163.465 52.3618 163.521 54.5811 163.521 56.8002C163.521 57.917 163.55 59.0194 163.422 60.1219C163.209 62.384 162.499 64.6461 161.094 66.4359C159.873 68.0107 158.127 69.1275 156.239 69.7288C154.095 70.4304 151.795 70.5163 149.552 70.3875C147.068 70.2013 144.499 69.5141 142.54 67.8819C140.722 66.4073 139.686 64.1165 139.558 61.7969C139.544 61.5679 139.771 61.4105 139.984 61.4391C141.233 61.4247 142.483 61.4391 143.732 61.4247C143.931 61.4391 144.215 61.4105 144.328 61.6251C144.484 61.9974 144.499 62.3984 144.612 62.7848C144.967 64.0304 145.805 65.1329 146.912 65.7916C148.204 66.5647 149.723 66.8654 151.213 66.8654C152.945 66.9226 154.762 66.536 156.154 65.4336C157.545 64.3742 158.354 62.6989 158.695 61.0096C159.121 59.0338 158.936 57.0008 158.979 55.0105C158.027 56.6428 156.622 58.0315 154.919 58.862C152.888 59.8498 150.546 59.9931 148.346 59.6493C146.23 59.3201 144.186 58.3895 142.653 56.8718C141.432 55.6977 140.524 54.2231 139.913 52.6339C139.09 50.5005 138.806 48.1955 138.806 45.9048C138.849 43.6569 139.189 41.3947 140.041 39.29C140.737 37.529 141.787 35.8968 143.207 34.6226C144.726 33.2625 146.656 32.4035 148.658 32.1314ZM150.39 35.5676C149.226 35.6964 148.09 36.1116 147.139 36.8132C145.833 37.7867 144.967 39.2471 144.47 40.7791C143.76 42.9267 143.633 45.2318 143.775 47.4795C143.931 49.6273 144.399 51.8464 145.677 53.6074C146.642 54.9677 148.161 55.8697 149.779 56.156C151.852 56.5425 154.166 56.2848 155.855 54.939C157.545 53.5932 158.382 51.4884 158.723 49.4125C159.092 47.0931 159.078 44.7164 158.638 42.4113C158.24 40.3782 157.403 38.3309 155.785 36.985C154.308 35.7394 152.278 35.3242 150.39 35.5676ZM233.252 32.6898C233.266 32.6325 233.323 32.518 233.352 32.4607C234.969 32.4463 236.588 32.4607 238.207 32.4607C238.462 32.4321 238.718 32.5753 238.846 32.8186C240.876 36.1545 242.92 39.4906 244.95 42.8408C246.908 39.5192 248.868 36.1975 250.812 32.8902C250.955 32.6325 251.21 32.4177 251.508 32.4607C252.956 32.4607 254.405 32.4321 255.852 32.475C255.824 32.8616 255.554 33.1622 255.37 33.4915C252.899 37.5004 250.429 41.5237 247.946 45.5324C250.377 49.4458 252.805 53.3546 255.227 57.2584C255.725 58.0746 256.263 58.8619 256.717 59.6924C256.874 59.9501 256.52 59.9787 256.363 59.9643C254.816 59.9501 253.269 59.9645 251.721 59.9501C251.31 59.9787 251.139 59.5348 250.955 59.2343C248.779 55.6453 246.6 52.0564 244.424 48.4674C242.168 52.1758 239.925 55.8983 237.667 59.6065C237.54 59.8642 237.256 59.9787 236.986 59.9643C235.553 59.9501 234.118 59.9787 232.684 59.9501C232.443 59.9787 232.528 59.6207 232.641 59.5206C235.566 54.8101 238.505 50.0997 241.428 45.375C238.703 41.1513 235.978 36.9133 233.252 32.6898ZM256.874 32.4607C258.531 32.4512 260.191 32.4512 261.857 32.4607C262.113 32.4463 262.284 32.6612 262.354 32.8902C264.938 39.7911 267.521 46.6922 270.105 53.5932C272.306 46.6922 274.477 39.7769 276.664 32.8758C276.721 32.6468 276.905 32.4321 277.16 32.4607C278.595 32.4607 280.028 32.4463 281.477 32.4607C281.774 32.4607 281.731 32.833 281.632 33.019C277.53 44.8882 273.399 56.7573 269.297 68.6408C269.224 68.8554 269.04 69.0558 268.799 69.0272C267.437 69.0416 266.059 69.0272 264.696 69.0272C264.655 68.8554 264.598 68.6836 264.668 68.5118C265.647 65.6771 266.626 62.8421 267.593 60.0073C264.044 50.973 260.467 41.9532 256.917 32.9189C256.847 32.7757 256.86 32.6181 256.874 32.4607Z" fill="white"/>
</g>
<defs>
<clipPath id="clip0_121_216">
<rect width="234" height="59" fill="white" transform="translate(48 12)"/>
</clipPath>
</defs>
</svg>
