<svg width="94" height="130" viewBox="0 0 94 130" fill="none" xmlns="http://www.w3.org/2000/svg">
<path d="M36.4518 88.04L19.2002 76.9016L19.6032 60.4015L36.9329 50.5715L54.9003 61.2643L54.4832 78.3428L36.4541 88.04H36.4518Z" fill="#EC9FFF"/>
<path d="M36.8719 70.9637L19.6061 60.4037L19.2031 76.9039L36.4547 88.0422M19.6061 60.4061L36.9359 50.5762L54.9033 61.2689L36.8719 70.9661L36.4547 88.0446L54.4837 78.3474L54.9009 61.2689" stroke="#0D0023" stroke-width="0.50963" stroke-linecap="round"/>
<path d="M54.5753 61.698L37.146 71.0681L36.7715 87.5611L54.2008 78.1911L54.5753 61.698Z" fill="white"/>
<path d="M18.0289 129.448L0.777344 118.31L1.1803 101.809L18.5077 91.9795L36.4751 102.672L36.0579 119.751L18.0265 129.448H18.0289Z" fill="#EC9FFF"/>
<path d="M1.1803 101.812L18.4461 112.372M1.1803 101.812L0.777344 118.312L18.0289 129.45M1.1803 101.812L18.5077 91.9819L36.4751 102.675M36.4751 102.675L18.4437 112.372L18.0265 129.45L36.0579 119.753L36.4751 102.675Z" stroke="#0D0023" stroke-width="0.50963" stroke-linecap="round"/>
<path d="M36.0298 103.801L18.5958 113.211L18.1904 129.054L35.6411 119.684L36.0298 103.801Z" fill="white"/>
<path d="M73.9342 108.084L56.6826 96.9456L57.0856 80.4454L74.4154 70.6155L92.3828 81.3082L91.9656 98.3867L73.9342 108.084Z" fill="#EC9FFF"/>
<path d="M57.0885 80.4454L74.3543 91.0054M57.0885 80.4454L56.6855 96.9456L73.9371 108.084M57.0885 80.4454L74.4183 70.6155L92.3857 81.3082M74.3543 91.0054L73.9371 108.084M74.3543 91.0054L92.3857 81.3082M73.9371 108.084L91.9685 98.3867L92.3857 81.3082" stroke="#0D0023" stroke-width="0.50963" stroke-linecap="round"/>
<path d="M91.938 82.4363L74.504 91.8467L74.0986 107.69L91.5493 98.3201L91.938 82.4363Z" fill="white"/>
<path d="M18.4254 113.171L1.17383 102.032L1.57679 85.5321L18.9066 75.7021L36.874 86.3949L36.4568 103.473L18.4254 113.171Z" fill="#EC9FFF"/>
<path d="M1.57875 85.5321L18.8445 96.0921M1.57875 85.5321L1.17578 102.032L18.4273 113.171L18.8445 96.0921M1.57875 85.5321L18.9085 75.7021L36.8759 86.3949L18.8445 96.0921M18.4297 113.171L36.4611 103.473L36.8783 86.3949" stroke="#0D0023" stroke-width="0.50963" stroke-linecap="round"/>
<path d="M36.5558 88.0139L19.1265 97.384L18.752 112.751L36.1813 103.381L36.5558 88.0139Z" fill="white"/>
<path d="M74.3326 91.8041L57.0811 80.6658L57.484 64.1656L74.8138 54.3357L92.7812 65.0284L92.364 82.1069L74.3326 91.8041Z" fill="#EC9FFF"/>
<path d="M57.487 64.1681L74.7527 74.7281M57.487 64.1681L57.084 80.6682L74.3355 91.8066M57.487 64.1681L74.8167 54.3381L92.7841 65.0309M74.7527 74.7281L74.3355 91.8066M74.7527 74.7281L92.7841 65.0309M74.3355 91.8066L92.367 82.1094L92.7841 65.0309" stroke="#0D0023" stroke-width="0.50963" stroke-linecap="round"/>
<path d="M92.464 66.6475L75.0347 76.0175L74.6602 91.3846L92.0895 82.0146L92.464 66.6475Z" fill="white"/>
<path d="M18.8092 97.4882L1.55762 86.3498L1.96058 69.8497L19.2904 60.0198L37.2578 70.7125L36.8406 87.791L18.8092 97.4882Z" fill="#EC9FFF"/>
<path d="M1.96058 69.8497L19.2264 80.4097M1.96058 69.8497L1.55762 86.3498L18.8092 97.4882M1.96058 69.8497L19.2904 60.0198L37.2578 70.7125M19.2264 80.4097L18.8092 97.4882M19.2264 80.4097L37.2578 70.7125M18.8092 97.4882L36.8406 87.791L37.2578 70.7125" stroke="#0D0023" stroke-width="0.50963" stroke-linecap="round"/>
<path d="M74.7164 76.1242L57.4648 64.9858L57.8678 48.4857L75.1976 38.6558L93.165 49.3485L92.7478 66.427L74.7164 76.1242Z" fill="#EC9FFF"/>
<path d="M57.8678 48.4857L75.1336 59.0457M57.8678 48.4857L57.4648 64.9858L74.7164 76.1242M57.8678 48.4857L75.1976 38.6558L93.165 49.3485M75.1336 59.0457L74.7164 76.1242M75.1336 59.0457L93.165 49.3485M74.7164 76.1242L92.7478 66.427L93.165 49.3485" stroke="#0D0023" stroke-width="0.50963" stroke-linecap="round"/>
<path d="M36.9328 71.1462L19.5034 80.5163L19.1289 97.0094L36.5582 87.6393L36.9328 71.1462Z" fill="white"/>
<path d="M92.841 49.7798L75.4116 59.1498L75.0371 75.6429L92.4664 66.2728L92.841 49.7798Z" fill="white"/>
<path d="M2.53208 64.0779L2.6506 58.2468L32.3988 58.4175L32.2613 65.0877C30.2844 71.7105 22.538 73.019 19.018 73.1825C7.93889 73.7419 3.53001 67.4273 2.52734 64.0803L2.53208 64.0779Z" fill="#C7EF00" stroke="#0D0023" stroke-width="0.772741"/>
<path d="M17.1191 69.3566C21.2245 69.4395 24.9484 68.2947 27.653 66.3913C30.3576 64.4878 32.0216 61.8496 32.0808 58.9341C32.1401 56.0185 30.5875 53.3139 27.9611 51.3015C25.3348 49.289 21.6607 47.9924 17.5552 47.9095C13.4497 47.8241 9.72588 48.9714 7.02128 50.8748C4.31669 52.7782 2.65269 55.4164 2.59343 58.332C2.53417 61.2475 4.08676 63.9521 6.71313 65.9646C9.33713 67.977 13.0136 69.2736 17.1167 69.3566H17.1191Z" fill="white" stroke="#0D0023" stroke-width="0.772741"/>
<path d="M20.3857 57.8131L20.4402 57.7751L23.0571 57.9174L23.178 57.9648L18.2002 60.9728L20.3857 57.8131Z" fill="#0D0023"/>
<path d="M23.1749 57.967L20.3827 57.8153L18.5361 54.4375L23.1726 57.967H23.1749Z" fill="#0D0023"/>
<path fill-rule="evenodd" clip-rule="evenodd" d="M11.6006 57.339H11.6053L17.0904 60.9112L19.2758 57.7538L19.2711 57.7491L17.427 54.3784L11.6006 57.3366V57.339Z" fill="#0D0023"/>
<path d="M59.5225 37.3235L59.6268 32.2415L85.5468 32.3884L85.4282 38.2006C83.705 43.9724 76.9565 45.1102 73.8893 45.2524C64.2348 45.7383 60.3948 40.2367 59.5225 37.3212V37.3235Z" fill="#C7EF00" stroke="#0D0023" stroke-width="0.673185"/>
<path d="M72.2326 41.9221C75.8095 41.9956 79.0545 40.9977 81.4107 39.3384C83.7668 37.6815 85.2175 35.3822 85.2697 32.8412C85.3218 30.3002 83.9683 27.944 81.6809 26.1923C79.3935 24.4406 76.1911 23.3099 72.6166 23.2365C69.0397 23.163 65.7947 24.1609 63.4385 25.8202C61.0824 27.4771 59.6317 29.7763 59.5796 32.3174C59.5274 34.8584 60.8809 37.2145 63.1683 38.9662C65.4557 40.7179 68.6581 41.8486 72.235 41.9221H72.2326Z" fill="white" stroke="#0D0023" stroke-width="0.673185"/>
<path d="M75.0792 31.8645L75.1266 31.8313L77.4069 31.9546L77.5112 31.9949L73.1758 34.6165L75.0792 31.8621V31.8645Z" fill="#0D0023"/>
<path d="M77.5088 31.9972L75.0768 31.8645L73.4697 28.9229L77.5112 31.9972H77.5088Z" fill="#0D0023"/>
<path fill-rule="evenodd" clip-rule="evenodd" d="M67.4229 31.452H67.4252L72.2063 34.5643L74.1097 31.8147L74.1073 31.8099L72.5002 28.873L67.4229 31.452Z" fill="#0D0023"/>
<path d="M1.64495 58.0286L1.76347 52.1975L31.5116 52.3682L31.3765 59.0384C29.3996 65.6636 21.6532 66.9697 18.1332 67.1332C7.05414 67.6926 2.64524 61.378 1.64258 58.031L1.64495 58.0286Z" fill="#C7EF00" stroke="#0D0023" stroke-width="0.772741"/>
<path d="M16.2329 63.3075C20.3384 63.3905 24.0622 62.2456 26.7668 60.3422C29.4714 58.4388 31.1354 55.8006 31.1947 52.885C31.2539 49.9694 29.7014 47.2648 27.075 45.2548C24.451 43.2423 20.7745 41.9457 16.6714 41.8604C12.5683 41.7751 8.84209 42.9223 6.1375 44.8257C3.4329 46.7292 1.7689 49.3674 1.70965 52.2829C1.65039 55.1985 3.20298 57.9031 5.82935 59.9132C8.45335 61.9256 12.1298 63.2222 16.2329 63.3051V63.3075Z" fill="white" stroke="#0D0023" stroke-width="0.772741"/>
<path d="M19.4994 51.7638L19.5515 51.7258L22.1684 51.868L22.2893 51.9154L17.3115 54.9235L19.497 51.7638H19.4994Z" fill="#0D0023"/>
<path d="M22.2892 51.9179L19.4969 51.7662L17.6504 48.3884L22.2868 51.9179H22.2892Z" fill="#0D0023"/>
<path fill-rule="evenodd" clip-rule="evenodd" d="M10.7139 51.2897H10.7186L16.2036 54.8619L18.3891 51.7045L18.3844 51.6998L16.5426 48.3291L10.7162 51.2873L10.7139 51.2897Z" fill="#0D0023"/>
<path d="M58.75 32.0543L58.8543 26.9722L84.7743 27.1191L84.6558 32.9313C82.9349 38.7031 76.1841 39.8409 73.1168 39.9831C63.4623 40.4691 59.6223 34.9674 58.75 32.0519V32.0543Z" fill="#C7EF00" stroke="#0D0023" stroke-width="0.673185"/>
<path d="M71.4602 36.6528C75.037 36.7263 78.2821 35.7284 80.6382 34.0691C82.9944 32.4122 84.445 30.113 84.4972 27.5719C84.5493 25.0309 83.1959 22.6747 80.9084 20.923C78.621 19.1713 75.4187 18.0407 71.8442 17.9672C68.2673 17.8937 65.0222 18.8916 62.6661 20.5509C60.3099 22.2078 58.8593 24.507 58.8071 27.0481C58.755 29.5867 60.1085 31.9452 62.3959 33.6969C64.6833 35.4487 67.8856 36.5793 71.4602 36.6528Z" fill="white" stroke="#0D0023" stroke-width="0.673185"/>
<path d="M74.3067 26.5928L74.3541 26.5596L76.6344 26.6828L76.7387 26.7231L72.4033 29.3448L74.3067 26.5904V26.5928Z" fill="#0D0023"/>
<path d="M76.7368 26.728L74.3048 26.5952L72.6953 23.6536L76.7368 26.728Z" fill="#0D0023"/>
<path fill-rule="evenodd" clip-rule="evenodd" d="M66.6498 26.1805H66.6522L71.4309 29.2928L73.3343 26.5432L73.3319 26.5385L71.7248 23.6016L66.6475 26.1805H66.6498Z" fill="#0D0023"/>
<path d="M2.23047 53.2264L2.36557 47.3953L32.1137 47.6418L31.9597 54.312C29.9662 60.9301 22.2174 62.2172 18.6974 62.3736C7.61595 62.9046 3.22365 56.5781 2.23047 53.2287V53.2264Z" fill="#C7EF00" stroke="#0D0023" stroke-width="0.772741"/>
<path d="M16.8043 58.5408C20.9075 58.6356 24.636 57.4978 27.3454 55.6039C30.0547 53.7076 31.7258 51.0741 31.7922 48.1586C31.8586 45.243 30.3131 42.5361 27.6915 40.5165C25.0722 38.4993 21.4005 37.1909 17.295 37.0961C13.1919 37.0013 9.4633 38.139 6.7516 40.0329C4.04227 41.9292 2.37116 44.5627 2.30479 47.4783C2.23842 50.3938 3.7839 53.1032 6.40553 55.1204C9.02479 57.1375 12.6965 58.446 16.802 58.5408H16.8043Z" fill="white" stroke="#0D0023" stroke-width="0.772741"/>
<path d="M58.0437 28.565L57.6289 23.4995L83.428 20.9988L83.9045 26.792C82.7809 32.7084 76.1842 34.5312 73.1477 34.9863C63.5951 36.456 59.2123 31.3763 58.0461 28.565H58.0437Z" fill="#C7EF00" stroke="#0D0023" stroke-width="0.673185"/>
<path d="M71.1561 31.8409C74.7211 31.5493 77.8477 30.2242 80.0237 28.3327C82.1997 26.4435 83.4062 24.0092 83.1976 21.4752C82.989 18.9437 81.4032 16.7369 78.9475 15.2269C76.4942 13.717 73.1923 12.9206 69.6272 13.2121C66.0622 13.5037 62.9357 14.8287 60.7597 16.7179C58.5837 18.6071 57.3771 21.0414 57.5857 23.5754C57.7943 26.1069 59.3801 28.3137 61.8358 29.8237C64.2891 31.3336 67.5911 32.1324 71.1561 31.8385V31.8409Z" fill="white" stroke="#0D0023" stroke-width="0.673185"/>
<path d="M22.1819 9.80602L25.1852 4.80688L50.9085 19.7497L47.4714 25.4694C42.4628 30.2339 35.0933 27.5127 31.9573 25.9056C22.0682 20.878 21.3831 13.2075 22.1796 9.80602H22.1819Z" fill="#C7EF00" stroke="#0D0023" stroke-width="0.772741"/>
<path d="M32.2112 21.6411C35.7312 23.7555 39.5309 24.6135 42.8257 24.3078C46.1182 24.002 48.8749 22.5418 50.3753 20.0411C51.8782 17.5427 51.8734 14.4233 50.5982 11.3727C49.3205 8.322 46.7795 5.36852 43.2595 3.25415C39.7395 1.13978 35.9374 0.281705 32.645 0.585112C29.3525 0.89089 26.5958 2.35104 25.0953 4.85178C23.5949 7.35015 23.5973 10.4695 24.8725 13.5202C26.1502 16.5709 28.6912 19.5244 32.2112 21.6387V21.6411Z" fill="white" stroke="#0D0023" stroke-width="0.772741"/>
<path d="M54.1447 18.6474L50.243 14.312L27.8359 33.8818L32.2993 38.8406C38.1233 42.5621 44.841 38.4898 47.6119 36.3138C56.3634 29.4966 55.574 21.8355 54.1447 18.6474Z" fill="#C7EF00" stroke="#0D0023" stroke-width="0.772741"/>
<path d="M46.5539 32.1752C43.5009 34.9201 39.9335 36.4869 36.6434 36.8164C33.3533 37.1435 30.369 36.2333 28.4182 34.0667C26.4674 31.9002 25.8772 28.8377 26.548 25.5974C27.2212 22.3595 29.1531 18.9746 32.2061 16.2297C35.2568 13.4848 38.8265 11.918 42.1166 11.5885C45.4067 11.2614 48.391 12.1716 50.3418 14.3381C52.2926 16.5047 52.8828 19.5696 52.212 22.8075C51.5388 26.0454 49.607 29.4303 46.5539 32.1752Z" fill="white" stroke="#0D0023" stroke-width="0.772741"/>
<path d="M55.5689 118.537L38.3174 107.399L38.8057 90.894L57.1713 80.9622L74.0152 91.7616L73.598 108.84L55.5666 118.537H55.5689Z" fill="#EC9FFF"/>
<path d="M55.9861 101.459L38.8057 90.8938L38.3174 107.399L55.5689 118.537M38.8057 90.8962L57.1713 80.9644L74.0152 91.7638M74.0152 91.7638L55.9837 101.461L55.5666 118.539L73.598 108.842L74.0152 91.7638Z" stroke="#0D0023" stroke-width="0.50963" stroke-linecap="round"/>
<path d="M73.87 92.1809L56.2368 101.506L55.8623 118.186L73.4789 108.629L73.87 92.1809Z" fill="white"/>
</svg>
