<svg width="197" height="82" viewBox="0 0 197 82" fill="none" xmlns="http://www.w3.org/2000/svg">
<g clip-path="url(#clip0_121_235)">
<rect width="197" height="82" fill="#120E1B" fill-opacity="0.5"/>
<g clip-path="url(#clip1_121_235)">
<path d="M75.9861 71.0409V66.4562H86.7986C88.452 66.4562 89.7421 65.9843 90.6678 65.0405C91.593 64.0966 92.056 62.8525 92.056 61.3141C92.056 59.7757 91.593 58.507 90.6678 57.5876C89.7421 56.6683 88.452 56.2086 86.7986 56.2086H72.5434V78.5764H67.8767V51.4678H86.7986C88.3543 51.4678 89.7421 51.6976 90.9659 52.1574C92.1868 52.6169 93.2185 53.2636 94.0587 54.0972C94.899 54.9307 95.5411 55.942 95.9855 57.1341C96.43 58.3261 96.6523 59.6683 96.6523 61.1608C96.6523 62.6533 96.43 63.9618 95.9855 65.1692C95.5411 66.3736 94.899 67.4124 94.0587 68.2827C93.2185 69.153 92.1898 69.8304 90.9659 70.3145C89.7456 70.7986 88.3543 71.0409 86.7986 71.0409H75.9861Z" fill="white"/>
<path d="M111.967 78.5703V68.2797L97.6755 51.4678H104.007L114.487 63.9557L125.002 51.4678H131.001L116.67 68.2797V78.5703H111.967Z" fill="white"/>
<path d="M147.217 78.5703V56.2025H134.832V51.4678H164.321V56.2025H151.919V78.5703H147.217Z" fill="white"/>
<path d="M193.743 51.4683H198.428V78.5706H193.743V51.4683Z" fill="white"/>
<path d="M173.53 78.5706V66.8397H190.959V62.6445H173.53V51.4683H168.845V78.5706H173.53Z" fill="white"/>
<path d="M34.2247 58.5543C34.2247 62.2961 31.211 65.3298 27.4943 65.3298V72.1055C34.9278 72.1055 40.9551 66.0378 40.9551 58.5543C40.9551 51.0707 34.9278 45.0029 27.4943 45.0029C25.0437 45.0029 22.7426 45.6618 20.7639 46.8172C16.7396 49.1585 14.0334 53.5377 14.0334 58.5543V92.4325L20.0851 98.5244L20.7639 99.208V58.5543C20.7639 54.8125 23.7774 51.7786 27.4943 51.7786C31.211 51.7786 34.2247 54.8125 34.2247 58.5543Z" fill="white"/>
<path d="M27.494 31.4531C22.59 31.4531 17.9934 32.7739 14.0331 35.0815C11.4974 36.5555 9.22653 38.4341 7.30267 40.6313C3.11406 45.4088 0.572266 51.685 0.572266 58.5557V78.8825L7.30267 85.6581V58.5557C7.30267 52.537 9.90232 47.1281 14.0331 43.4048C15.9752 41.6579 18.2552 40.2789 20.7636 39.3902C22.8669 38.6363 25.1348 38.2288 27.494 38.2288C38.6442 38.2288 47.6851 47.3303 47.6851 58.5557C47.6851 69.781 38.6442 78.8825 27.494 78.8825V85.6581C42.3642 85.6581 54.4155 73.5228 54.4155 58.5557C54.4155 43.5886 42.3642 31.4531 27.494 31.4531Z" fill="white"/>
</g>
</g>
<defs>
<clipPath id="clip0_121_235">
<rect width="197" height="82" fill="white"/>
</clipPath>
<clipPath id="clip1_121_235">
<rect width="197" height="82" fill="white"/>
</clipPath>
</defs>
</svg>
