<svg width="180" height="118" viewBox="0 0 180 118" fill="none" xmlns="http://www.w3.org/2000/svg">
<g id="&#233;&#154;&#148;&#231;&#166;&#187;&#230;&#168;&#161;&#229;&#188;&#143;" clip-path="url(#clip0_5313_2957)">
<path id="Union" fill-rule="evenodd" clip-rule="evenodd" d="M82.3363 10.3558C85.2044 7.43996 89.0878 5.80537 93.1331 5.80537H154.454C156.459 5.80537 158.445 6.20768 160.299 6.98977C162.152 7.77187 163.838 8.91867 165.258 10.3655C166.678 11.8123 167.805 13.5307 168.574 15.4231C169.343 17.3155 169.739 19.3442 169.738 21.3932V21.3935V50.1094C169.738 50.118 169.739 50.1265 169.739 50.1351C169.739 50.1486 169.74 50.1622 169.741 50.1757C170.209 56.5152 168.805 61.0546 166.54 63.9879C164.28 66.9135 161.108 68.3194 157.844 68.3194H157.711C157.214 68.3194 156.811 68.7224 156.811 69.2194V86.8998L156.811 86.9103C156.814 87.1997 156.735 87.4827 156.584 87.7246C156.433 87.9663 156.218 88.1556 155.966 88.2719C155.715 88.388 155.438 88.4268 155.167 88.3846C154.896 88.3424 154.641 88.2206 154.433 88.0314L154.422 88.0217L132.34 68.5445C132.175 68.3994 131.963 68.3194 131.744 68.3194H93.1121C89.0677 68.3138 85.1874 66.6745 82.3234 63.7558C79.459 60.8366 77.8458 56.876 77.843 52.7422V21.3661C77.8501 17.2315 79.468 13.2719 82.3363 10.3558ZM93.1331 4.00537C88.6002 4.00536 84.256 5.83729 81.0531 9.09353C77.8507 12.3492 76.0507 16.7626 76.043 21.3638V21.3653V52.7425V52.7431C76.0461 57.3433 77.8409 61.7576 81.0386 65.0165C84.2369 68.2759 88.5778 70.1131 93.1096 70.1194H93.1109H131.404L153.227 89.3674C153.692 89.7893 154.27 90.0666 154.89 90.1632C155.513 90.2602 156.15 90.1704 156.722 89.9055C157.294 89.6408 157.776 89.2134 158.111 88.6778C158.444 88.1439 158.617 87.5247 158.611 86.895V70.097C162.142 69.8893 165.529 68.2408 167.964 65.0881C170.564 61.721 172.023 56.7166 171.538 50.0765V21.3938V21.3935C171.539 19.1127 171.099 16.8536 170.242 14.7453C169.385 12.6369 168.128 10.72 166.542 9.10454C164.956 7.48904 163.073 6.20661 160.999 5.33135C158.924 4.45608 156.7 4.00537 154.454 4.00537H93.1331ZM127.078 16.1303C127.605 16.1307 128.11 16.3438 128.482 16.7227L131.573 19.8652C130.759 21.22 130.416 22.8139 130.601 24.3905C130.785 25.9671 131.486 27.4348 132.589 28.5575C133.693 29.6801 135.136 30.3926 136.686 30.5802C138.236 30.7679 139.803 30.4197 141.135 29.5919L143.231 31.7246C143.603 32.104 143.812 32.6175 143.812 33.153C143.813 33.6884 143.604 34.2023 143.233 34.5821L121.522 56.6645C121.149 57.0429 120.644 57.2553 120.117 57.2549C119.591 57.2545 119.086 57.0414 118.713 56.6625L115.973 53.8738C116.588 52.5546 116.787 51.0741 116.543 49.6353C116.298 48.1966 115.622 46.87 114.607 45.8375C113.592 44.805 112.288 44.1173 110.873 43.8686C109.459 43.6198 108.003 43.8223 106.706 44.4483L103.965 41.6606C103.593 41.2813 103.384 40.7677 103.384 40.2323C103.384 39.6968 103.592 39.1829 103.963 38.8031L125.673 16.7207C126.046 16.3423 126.551 16.1299 127.078 16.1303ZM145.798 33.1535C145.797 32.0817 145.379 31.0539 144.635 30.2954H144.636L141.262 26.8638C140.815 27.3884 140.267 27.8138 139.651 28.1134C139.036 28.413 138.366 28.5805 137.684 28.6053C137.002 28.6301 136.323 28.5117 135.688 28.2576C135.053 28.0035 134.476 27.6191 133.994 27.1283C133.511 26.6374 133.133 26.0508 132.883 25.4049C132.633 24.759 132.517 24.0676 132.541 23.374C132.566 22.6803 132.73 21.9992 133.025 21.3731C133.32 20.747 133.738 20.1893 134.253 19.7348L129.887 15.2935C129.142 14.5352 128.131 14.1091 127.077 14.1087C126.024 14.1083 125.013 14.5338 124.267 15.2915L102.559 37.3729C101.815 38.1318 101.397 39.16 101.398 40.2317C101.398 41.3035 101.816 42.3314 102.561 43.0898L106.431 47.0268C107.381 46.19 108.607 45.7503 109.862 45.7959C111.117 45.8416 112.309 46.3694 113.198 47.2729C114.086 48.1765 114.605 49.3889 114.65 50.6659C114.695 51.943 114.262 53.1899 113.44 54.1558L117.309 58.0917C118.054 58.85 119.065 59.2761 120.119 59.2765C121.173 59.2769 122.184 58.8515 122.929 58.0938L144.637 36.0123C145.38 35.2534 145.798 34.2252 145.798 33.1535ZM115.939 37.479L124.37 28.9026C124.558 28.7184 124.809 28.6166 125.069 28.6189C125.33 28.6212 125.579 28.7275 125.763 28.9149C125.947 29.1023 126.052 29.3558 126.054 29.6208C126.056 29.8858 125.956 30.1412 125.775 30.3318L117.344 38.9082C117.156 39.0923 116.905 39.1942 116.645 39.1919C116.384 39.1896 116.135 39.0833 115.951 38.8959C115.767 38.7085 115.662 38.455 115.66 38.19C115.658 37.9249 115.758 37.6696 115.939 37.479ZM121.901 43.0534L129.85 34.9672C130.038 34.7831 130.289 34.6812 130.549 34.6835C130.81 34.6858 131.059 34.7921 131.243 34.9795C131.428 35.1669 131.532 35.4204 131.534 35.6855C131.537 35.9505 131.437 36.2058 131.256 36.3964L123.306 44.4827C123.119 44.6668 122.868 44.7687 122.607 44.7663C122.347 44.764 122.097 44.6577 121.913 44.4703C121.729 44.2829 121.624 44.0294 121.622 43.7644C121.62 43.4994 121.72 43.244 121.901 43.0534Z" fill="#4FFFCF"/>
<g id="Group 11076">
<path id="Subtract" fill-rule="evenodd" clip-rule="evenodd" d="M65.9836 30.8569H25.1643C20.2658 30.8569 15.5714 32.8388 12.1128 36.3611C8.65468 39.8829 6.71484 44.6559 6.71484 49.6295V83.1935C6.7141 85.0059 7.06412 86.801 7.74515 88.4764C8.42622 90.152 9.42524 91.6755 10.686 92.9594C11.9468 94.2434 13.4446 95.2627 15.0942 95.9581C16.5415 96.5683 18.0804 96.9185 19.6426 96.9947V113.788C19.6392 114.417 19.8142 115.035 20.1483 115.567C20.483 116.1 20.9637 116.525 21.5343 116.789C22.105 117.053 22.7398 117.144 23.3612 117.049C23.9808 116.954 24.5583 116.679 25.0249 116.26L25.029 116.256L46.8547 97.0106H83.7829H83.7841C88.6795 97.0042 93.3689 95.0187 96.8226 91.4959C100.073 88.1802 101.979 83.7582 102.191 79.1048H100.389C100.179 83.2907 98.4551 87.2595 95.5373 90.2357C92.4182 93.4172 88.1901 95.2046 83.7829 95.2105L68.6903 79.1048H68.6895L83.7818 95.2105H46.5145C46.2954 95.2105 46.0837 95.2905 45.9193 95.4355L23.8312 114.913L23.8239 114.919C23.6155 115.107 23.3601 115.228 23.0892 115.269C22.8183 115.311 22.5409 115.271 22.2901 115.155C22.0392 115.039 21.8241 114.851 21.6727 114.609C21.5212 114.368 21.4407 114.086 21.4426 113.797L21.4426 113.791V96.1105C21.4426 95.6135 21.0396 95.2105 20.5426 95.2105H20.2985H20.2981C18.7528 95.2112 17.2221 94.9018 15.7934 94.2995C14.3647 93.6972 13.0654 92.8135 11.9703 91.6983C10.8752 90.5831 10.0059 89.2581 9.41266 87.7986C8.81941 86.3391 8.51417 84.7744 8.51485 83.1939L8.51485 83.1935V49.6295C8.51485 45.1228 10.2729 40.804 13.3971 37.6223C16.5208 34.441 20.7539 32.6569 25.1643 32.6569L65.9836 76.2173V76.2164L25.1643 32.6569H65.9836V30.8569Z" fill="#3A9BFF"/>
<path id="Vector" d="M58.4002 43.4976C60.962 43.4976 62.0003 45.2038 62.0003 47.9976C61.8913 51.3597 60.9866 54.7065 59.5592 57.7464C61.5643 57.9398 63.587 57.8953 65.5991 57.8976C68.9917 57.8976 70.9992 59.3038 70.9992 61.9475C71.0249 63.0198 70.4366 63.8999 69.5942 64.5175L69.6199 64.5538C70.3511 66.2132 70.2961 67.8421 68.6941 69.0175L68.7199 69.0538C69.4512 70.712 69.3961 72.3421 67.7952 73.5175L67.8199 73.5538C68.3261 74.9601 68.2136 74.3191 68.2992 75.4475C68.2992 77.905 66.4792 79.4976 63.8003 79.4976H58.4002C55.4248 79.4976 52.0275 79.214 49.0204 78.764C48.2446 78.6362 47.4689 78.5179 46.7001 78.3526V78.5976C46.7001 79.0944 46.297 79.4976 45.8001 79.4976H35.9C35.4032 79.4976 35 79.0944 35 78.5976V56.9976C35 56.5007 35.4032 56.0976 35.9 56.0976H45.8001C46.297 56.0976 46.7001 56.5007 46.7001 56.9976V57.1523C48.6736 55.9616 50.1173 54.0749 51.5599 52.3183C51.9373 51.8143 52.2971 51.2624 52.6556 50.6448C53.1619 49.7706 54.8459 46.3288 55.2736 45.6444C56.1197 44.2898 57.0432 43.4976 58.4002 43.4976ZM36.8 57.8976V77.6976H44.9V57.8976H36.8ZM58.4002 45.2976C56.6002 45.2976 55.7002 49.7976 53.0001 53.3976C51.3361 55.6816 49.3298 57.6245 46.9579 59.1679L46.7001 59.2874V76.48C50.5228 77.4186 54.4826 77.5522 58.4002 77.6976C58.4002 77.6976 62.0003 77.6976 63.8003 77.6976C65.5991 77.6976 66.4992 76.7976 66.4992 75.4475C66.4992 74.0976 65.5991 74.0976 65.5991 73.1976C65.5991 72.2976 67.3991 72.2976 67.3991 70.9476C67.3991 69.5976 66.4992 69.5976 66.4992 68.6976C66.4992 67.7977 68.2992 67.7977 68.2992 66.4476C68.2992 65.0977 67.3991 65.0977 67.3991 64.1977C67.3991 63.2977 69.1992 63.2977 69.1992 61.9477C69.1992 60.5977 68.2992 59.6977 65.5991 59.6977C59.3002 59.6977 56.6002 59.6977 57.5002 57.8977C58.4811 55.936 60.2002 51.5977 60.2002 47.9977C60.2002 46.1975 59.8088 45.2976 58.4002 45.2976Z" fill="#3A9BFF"/>
</g>
</g>
<defs>
<clipPath id="clip0_5313_2957">
<rect width="180" height="117.38" fill="white" transform="translate(0 0.310059)"/>
</clipPath>
</defs>
</svg>
