<svg width="25" height="24" viewBox="0 0 25 24" fill="none" xmlns="http://www.w3.org/2000/svg">
<g clip-path="url(#clip0_494_18367)">
<path d="M12.5001 23.9998C19.1502 23.9998 24.5001 18.6498 24.5001 11.9998C24.5001 5.34975 19.1502 -0.000213623 12.5001 -0.000213623C5.85008 -0.000213623 0.500122 5.34975 0.500122 11.9998C0.500122 18.6498 5.85008 23.9998 12.5001 23.9998Z" fill="#BDF556"/>
<path d="M15.8015 13.8985C15.8015 12.1486 14.7515 11.5486 12.6515 11.2986C11.1515 11.0986 10.8515 10.6986 10.8515 9.99852C10.8515 9.29843 11.3516 8.84855 12.3515 8.84855C13.2515 8.84855 13.7516 9.14855 14.0015 9.89856C14.0516 10.0486 14.2016 10.1485 14.3516 10.1485H15.1515C15.3515 10.1485 15.5015 9.99852 15.5015 9.79859V9.74856C15.3015 8.64851 14.4015 7.79855 13.2515 7.69859V6.49859C13.2515 6.29855 13.1015 6.14855 12.8516 6.09851H12.1016C11.9015 6.09851 11.7515 6.24851 11.7015 6.49859V7.64855C10.2015 7.84859 9.25156 8.84855 9.25156 10.0986C9.25156 11.7486 10.2515 12.3985 12.3515 12.6486C13.7516 12.8986 14.2016 13.1986 14.2016 13.9986C14.2016 14.7986 13.5015 15.3486 12.5516 15.3486C11.2515 15.3486 10.8015 14.7985 10.6515 14.0485C10.6016 13.8486 10.4516 13.7485 10.3016 13.7485H9.45148C9.25156 13.7485 9.10156 13.8985 9.10156 14.0986V14.1486C9.30148 15.3985 10.1015 16.2985 11.7515 16.5486V17.7486C11.7515 17.9485 11.9015 18.0985 12.1515 18.1486H12.9015C13.1015 18.1486 13.2515 17.9986 13.3016 17.7486V16.5486C14.8016 16.2985 15.8015 15.2485 15.8015 13.8985Z" fill="#0D1511"/>
<path d="M9.94903 19.15C6.04903 17.75 4.04898 13.4 5.49906 9.54993C6.24907 7.44993 7.89907 5.84997 9.94903 5.09996C10.1491 5 10.249 4.85 10.249 4.59992V3.89996C10.249 3.69992 10.1491 3.54992 9.94903 3.5C9.89899 3.5 9.79903 3.5 9.74899 3.54992C4.99902 5.04992 2.39898 10.1 3.89898 14.85C4.79898 17.65 6.94903 19.8 9.74899 20.7C9.94903 20.8 10.1491 20.7 10.199 20.5C10.249 20.45 10.249 20.4 10.249 20.3V19.6C10.249 19.45 10.099 19.25 9.94903 19.15ZM15.2491 3.54992C15.049 3.44996 14.849 3.54992 14.7991 3.74996C14.749 3.8 14.749 3.84992 14.749 3.95V4.64996C14.749 4.85 14.899 5.04992 15.049 5.15C18.949 6.54993 20.9491 10.8999 19.499 14.75C18.749 16.85 17.099 18.45 15.049 19.2C14.849 19.3 14.749 19.45 14.749 19.7V20.4C14.749 20.6 14.849 20.75 15.049 20.8C15.0991 20.8 15.199 20.8 15.2491 20.75C19.999 19.25 22.5991 14.1999 21.0991 9.44997C20.1991 6.59997 17.999 4.44992 15.2491 3.54992Z" fill="#0D1511"/>
</g>
<defs>
<clipPath id="clip0_494_18367">
<rect width="24" height="24" fill="white" transform="translate(0.5)"/>
</clipPath>
</defs>
</svg>
