<svg width="84" height="129" viewBox="0 0 84 129" fill="none" xmlns="http://www.w3.org/2000/svg">
<path d="M2.70559 96.6767V108.756C2.70559 108.756 8.33791 129.041 47.7584 128.345C47.7584 128.345 77.9988 127.571 83.2455 106.897V87.1543L77.9216 91.2579L69.744 111.001L53.3888 113.479L40.3502 115.492L27.3906 111.853L18.2875 105.194L12.9498 98.9687L2.70361 96.6767H2.70559Z" fill="white" stroke="#0D0023" stroke-width="0.474637" stroke-miterlimit="10"/>
<path d="M20.7021 103.385C20.7021 103.385 23.8861 93.989 42.0607 94.0661C42.0607 94.0661 58.9143 93.1347 66.6805 104.473L71.4526 102.637L71.9786 78.2568L60.3124 65.673L36.5866 62.396L25.8381 64.1008L20.5953 76.291L14.8284 90.9731L12.9932 98.9688L20.704 103.387H20.7001L20.7021 103.385Z" fill="#0D0023" stroke="#0D0023" stroke-width="0.474637" stroke-miterlimit="10"/>
<path d="M13.6143 60.0664V80.9722L27.3055 88.1134L27.3352 67.8979L13.6143 60.0664Z" fill="#EC9FFF" stroke="#0D0023" stroke-width="0.474637" stroke-miterlimit="10"/>
<path d="M27.3332 67.898L13.6143 60.0665C16.3197 58.0849 19.3811 56.6273 22.5414 55.5258C28.2271 53.5422 34.2965 52.6206 40.3007 52.3872C48.1698 52.0807 56.0586 53.2535 63.4748 55.9213C66.0042 56.831 68.502 57.7506 70.8831 58.9965L73.0862 60.2108L59.1952 68.8987C44.8275 60.8892 27.3391 67.898 27.3391 67.898H27.3332Z" fill="#EC9FFF" stroke="#001016" stroke-width="0.474637" stroke-miterlimit="10"/>
<path d="M59.1914 68.8986V80.0407L73.4602 72.1756L73.0073 60.4204L59.1895 68.8986H59.1914Z" fill="white" stroke="#0D0023" stroke-width="0.474637" stroke-miterlimit="10"/>
<path d="M27.3055 88.1134L13.6162 80.9722C13.6162 80.9722 -4.4655 89.5612 5.98639 105.501C5.98639 105.501 26.8427 130.946 68.9865 114.302C68.9865 114.302 77.0375 110.542 79.1635 106.64C79.1635 106.64 65.1973 102.315 65.1914 102.313C65.0727 102.275 62.832 104.585 62.6283 104.748C54.1917 111.41 42.8953 111.503 32.924 109.035C29.2317 108.121 24.4913 106.614 21.8135 103.775C19.565 101.39 17.8325 97.1652 19.733 94.1077C21.4892 91.2817 24.3469 89.5018 27.3075 88.1115L27.3055 88.1134Z" fill="#EC9FFF" stroke="#0D0023" stroke-width="0.474637" stroke-miterlimit="10"/>
<path d="M59.1914 80.0406C59.1914 80.0406 70.8319 83.7962 65.4052 93.6746L79.4584 97.9878C79.4584 97.9878 86.5206 89.6283 81.3569 80.0802C81.3569 80.0802 78.2935 74.4518 73.4601 72.1736L59.1914 80.0387V80.0406Z" fill="white" stroke="#0D0023" stroke-width="0.474637" stroke-miterlimit="10"/>
<path d="M65.405 93.6768L65.1895 102.315L79.1615 106.642L79.4602 97.992L65.405 93.6787V93.6768Z" fill="#EC9FFF" stroke="#0D0023" stroke-width="0.474637" stroke-miterlimit="10"/>
<path d="M44.7999 59.6174C45.3378 59.0281 45.6602 58.6919 46.3523 58.3161C46.9318 58.0017 47.5112 57.6991 48.0788 57.3648C51.1363 55.5632 54.7593 53.1861 56.2505 49.7608C56.4957 49.1952 56.6737 48.5999 56.7429 47.9889V5.59583C56.7429 5.59583 57.2136 -2.38991 50.2839 1.36763L10.0031 22.7402C10.0031 22.7402 4.95213 25.4416 4.83545 32.3694V72.5314C4.83545 72.5314 5.06885 79.2259 11.6465 76.5244C15.9875 74.2916 20.3284 72.0608 24.6733 69.828C26.9159 68.675 29.1606 67.5221 31.4032 66.3691C32.2912 65.9123 33.2148 65.495 34.077 64.9946C35.6552 64.081 37.3263 63.5035 39.0567 62.8667C41.0799 62.1251 43.2494 61.3142 44.7385 59.6846C44.7583 59.6609 44.7801 59.6392 44.7999 59.6174Z" fill="white" stroke="#0D0023" stroke-width="0.474637" stroke-miterlimit="10"/>
<path d="M39.063 66.3395L48.793 72.3357L41.6814 64.7751L39.063 66.3395Z" fill="#D9D9D9" stroke="#001016" stroke-width="0.474637" stroke-miterlimit="10"/>
<path d="M46.8546 60.9424C46.8546 60.9424 58.4812 55.8915 59.1852 49.6698V7.27674C59.1852 7.27674 59.6559 -0.709 52.7262 3.04854L12.4474 24.4211C12.4474 24.4211 7.39647 27.1226 7.27979 34.0503V74.2123C7.27979 74.2123 7.51511 80.9068 14.0908 78.2053L39.2208 65.2893L46.9713 73.627L46.8546 60.9443V60.9424Z" fill="#D5FF27" stroke="#0D0023" stroke-width="0.474637" stroke-miterlimit="10"/>
<path d="M35.6257 24.8324L35.5446 21.769L30.8339 23.9603V26.901C30.8339 26.901 20.5204 33.4174 23.0518 41.2627C23.0518 41.2627 25.7177 46.4521 33.9724 43.7605C33.9724 43.7605 36.5532 43.3986 36.664 45.2161C36.664 45.2161 37.1722 47.3243 33.828 49.1793C33.828 49.1793 31.3203 51.4714 29.4653 48.9618L23.2476 52.4167C23.2476 52.4167 24.2542 58.763 30.8319 56.7497V60.0781L34.8544 57.9897V54.2757C34.8544 54.2757 42.0531 52.4958 43.212 43.5964C43.212 43.5964 45.1461 35.1617 37.7161 36.3997C37.7161 36.3997 31.53 38.8698 30.3296 37.0424C29.1291 35.2151 30.4442 32.4128 32.7858 31.4418C32.7858 31.4418 35.0996 30.2987 36.3871 32.3278L42.5 28.9005C42.5 28.9005 42.6206 26.3136 40.6331 24.9886C38.6456 23.6636 35.6237 24.8403 35.6237 24.8403V24.8363L35.6257 24.8324Z" fill="#0D0023"/>
</svg>
