<svg width="20" height="20" viewBox="0 0 20 20" fill="none" xmlns="http://www.w3.org/2000/svg">
<g id="bar-chart-2">
<path id="Union" fill-rule="evenodd" clip-rule="evenodd" d="M10 2.39551C10.5178 2.39551 10.9375 2.81524 10.9375 3.33301V16.6663C10.9375 17.1841 10.5178 17.6038 10 17.6038C9.48223 17.6038 9.0625 17.1841 9.0625 16.6663V3.33301C9.0625 2.81524 9.48223 2.39551 10 2.39551ZM15 7.39551C15.5178 7.39551 15.9375 7.81524 15.9375 8.33301V16.6663C15.9375 17.1841 15.5178 17.6038 15 17.6038C14.4822 17.6038 14.0625 17.1841 14.0625 16.6663V8.33301C14.0625 7.81524 14.4822 7.39551 15 7.39551ZM5.9375 11.6667C5.9375 11.149 5.51777 10.7292 5 10.7292C4.48223 10.7292 4.0625 11.149 4.0625 11.6667V16.6667C4.0625 17.1845 4.48223 17.6042 5 17.6042C5.51777 17.6042 5.9375 17.1845 5.9375 16.6667V11.6667Z" fill="#E39A0C"/>
</g>
</svg>
