<svg width="21" height="20" viewBox="0 0 21 20" fill="none" xmlns="http://www.w3.org/2000/svg">
<path fill-rule="evenodd" clip-rule="evenodd" d="M9.19992 1.07821C9.59531 0.850392 10.0436 0.730469 10.5 0.730469C10.9564 0.730469 11.4047 0.850392 11.8001 1.07821L11.8021 1.07936L17.6354 4.41269C17.9549 4.59711 18.2306 4.84678 18.4452 5.14431C18.4988 5.19911 18.5465 5.26141 18.5866 5.33078C18.621 5.39028 18.6481 5.45199 18.6683 5.51488C18.8447 5.87198 18.9371 6.26552 18.9375 6.6653V13.3329C18.937 13.7896 18.8165 14.2391 18.5879 14.6345C18.3594 15.0298 18.0309 15.3582 17.6354 15.5865L17.6318 15.5886L11.8021 18.9198L11.8001 18.921C11.5302 19.0765 11.2356 19.1817 10.9306 19.2329C10.8016 19.2997 10.6552 19.3374 10.5 19.3374C10.3448 19.3374 10.1984 19.2997 10.0694 19.2329C9.76445 19.1817 9.46984 19.0765 9.1999 18.921L9.19792 18.9198L3.3682 15.5886L3.36458 15.5865C2.96909 15.3582 2.6406 15.0298 2.41206 14.6345C2.18352 14.2391 2.06297 13.7906 2.0625 13.3339V6.66626C2.06291 6.26621 2.15547 5.87167 2.33206 5.51419C2.35219 5.45154 2.37927 5.39006 2.41356 5.33078C2.45356 5.26164 2.50103 5.19952 2.55436 5.14486C2.76908 4.84708 3.04495 4.59723 3.36458 4.41269L3.3682 4.41061L9.19992 1.07821ZM11.4375 16.9686L16.6979 13.9627L16.6994 13.9618C16.8095 13.8979 16.9009 13.8063 16.9646 13.6961C17.0285 13.5856 17.0622 13.4603 17.0625 13.3327L17.0625 7.29546L11.4375 10.5493V16.9686ZM9.5625 10.5492V16.9686L4.30208 13.9627L4.30063 13.9619C4.19054 13.898 4.09909 13.8063 4.03538 13.6961C3.97145 13.5855 3.9377 13.4601 3.9375 13.3324V7.29538L9.5625 10.5492ZM10.8646 2.70317L16.0924 5.6905L10.5001 8.92548L4.90765 5.69046L10.1318 2.70525L10.1354 2.70316C10.2463 2.63916 10.372 2.60547 10.5 2.60547C10.628 2.60547 10.7537 2.63917 10.8646 2.70317Z" fill="#579464"/>
</svg>
