<svg width="20" height="20" viewBox="0 0 20 20" fill="none" xmlns="http://www.w3.org/2000/svg">
<g id="line-chart-down-05" clip-path="url(#clip0_419_10752)">
<path id="Icon" d="M4.99984 8.33317L7.86177 11.1951C8.02677 11.3601 8.10928 11.4426 8.20441 11.4735C8.2881 11.5007 8.37824 11.5007 8.46193 11.4735C8.55706 11.4426 8.63957 11.3601 8.80457 11.1951L11.1951 8.80457C11.3601 8.63957 11.4426 8.55706 11.5377 8.52615C11.6214 8.49896 11.7116 8.49896 11.7953 8.52615C11.8904 8.55706 11.9729 8.63957 12.1379 8.80457L14.9998 11.6665M18.3332 9.99984C18.3332 14.6022 14.6022 18.3332 9.99984 18.3332C5.39746 18.3332 1.6665 14.6022 1.6665 9.99984C1.6665 5.39746 5.39746 1.6665 9.99984 1.6665C14.6022 1.6665 18.3332 5.39746 18.3332 9.99984Z" stroke="#B788FA" stroke-width="1.66667" stroke-linecap="round" stroke-linejoin="round"/>
</g>
<defs>
<clipPath id="clip0_419_10752">
<rect width="20" height="20" fill="white"/>
</clipPath>
</defs>
</svg>
