<svg width="20" height="20" viewBox="0 0 20 20" fill="none" xmlns="http://www.w3.org/2000/svg">
<g id="icons8_percentage 1">
<path id="Vector" d="M6.25016 3.3335C4.6492 3.3335 3.3335 4.6492 3.3335 6.25016C3.3335 7.85112 4.6492 9.16683 6.25016 9.16683C7.85112 9.16683 9.16683 7.85112 9.16683 6.25016C9.16683 4.6492 7.85112 3.3335 6.25016 3.3335ZM14.167 4.16694C13.7921 3.89902 13.271 3.98582 13.0031 4.36078L5.63955 14.6698C5.3718 15.0446 5.45856 15.5656 5.83334 15.8334C6.20824 16.1013 6.72936 16.0145 6.99719 15.6395L14.3608 5.33052C14.6285 4.95568 14.5418 4.43477 14.167 4.16694ZM6.25016 5.00016C6.95039 5.00016 7.50016 5.54994 7.50016 6.25016C7.50016 6.95039 6.95039 7.50016 6.25016 7.50016C5.54994 7.50016 5.00016 6.95039 5.00016 6.25016C5.00016 5.54994 5.54994 5.00016 6.25016 5.00016ZM13.7502 10.8335C12.1492 10.8335 10.8335 12.1492 10.8335 13.7502C10.8335 15.3511 12.1492 16.6668 13.7502 16.6668C15.3511 16.6668 16.6668 15.3511 16.6668 13.7502C16.6668 12.1492 15.3511 10.8335 13.7502 10.8335ZM13.7502 12.5002C14.4504 12.5002 15.0002 13.0499 15.0002 13.7502C15.0002 14.4504 14.4504 15.0002 13.7502 15.0002C13.0499 15.0002 12.5002 14.4504 12.5002 13.7502C12.5002 13.0499 13.0499 12.5002 13.7502 12.5002Z" fill="#EC605A"/>
</g>
</svg>
