<svg width="20" height="20" viewBox="0 0 20 20" fill="none" xmlns="http://www.w3.org/2000/svg">
<g id="shield-01">
<path id="Icon" d="M9.4185 18.0122C9.603 18.1198 9.69524 18.1737 9.82543 18.2016C9.92646 18.2232 10.0739 18.2232 10.1749 18.2016C10.3051 18.1737 10.3973 18.1198 10.5818 18.0122C12.2052 17.0651 16.6668 14.0902 16.6668 9.99981V6.01448C16.6668 5.34822 16.6668 5.01509 16.5579 4.72873C16.4616 4.47576 16.3052 4.25004 16.1021 4.07109C15.8722 3.86851 15.5603 3.75154 14.9365 3.5176L10.4683 1.84204C10.2951 1.77707 10.2085 1.74459 10.1193 1.73171C10.0403 1.72029 9.96003 1.72029 9.88098 1.73171C9.79187 1.74459 9.70524 1.77707 9.532 1.84204L5.06383 3.5176C4.43999 3.75154 4.12808 3.86851 3.89821 4.07109C3.69515 4.25004 3.53872 4.47576 3.44246 4.72873C3.3335 5.01509 3.3335 5.34822 3.3335 6.01448V9.99981C3.3335 14.0902 7.79513 17.0651 9.4185 18.0122Z" stroke="#CC81F6" stroke-width="2" stroke-linecap="round" stroke-linejoin="round"/>
</g>
</svg>
